<?xml version="1.0" encoding="utf-8"?>
<!-- Generator: Adobe Illustrator 22.1.0, SVG Export Plug-In . SVG Version: 6.00 Build 0)  -->
<svg version="1.1" xmlns="http://www.w3.org/2000/svg" xmlns:xlink="http://www.w3.org/1999/xlink" x="0px" y="0px"
	 viewBox="0 0 1115.1 788.4" style="enable-background:new 0 0 1115.1 788.4;" xml:space="preserve">
<style type="text/css">
	.st0{opacity:0.69;fill:#3F3F3F;stroke:#60F741;stroke-miterlimit:10;}
	.st1{opacity:0.69;fill:#60F741;}
	.st2{fill:#D3D3D1;stroke:#A120B7;stroke-width:3;stroke-miterlimit:10;}
	.st3{fill:#A120B7;}
	.st4{fill:#8C8C8C;}
	.st5{fill:#662482;}
	.st6{fill:#009EE2;}
	.st7{fill:#FFFFFF;}
	.st8{fill:#FFF252;}
	.st9{fill:#FFF252;stroke:#FFF252;stroke-miterlimit:10;}
</style>
<g id="Layer_2">
</g>
<g id="Layer_10">
	<path class="st0" d="M249.7,311.9h-70.4v-35c0,0-0.4-7.2-7.6-6.3l-74.4-0.1c0,0-11.7,2.8-9.9,7.3l-0.2,31.4c0,0-11.4,2.4-18,24.3
		h180.5V311.9z"/>
	<path class="st0" d="M214.7,333.5H34.2c-1.5,4.9-2.7,10.7-3.5,17.7h184V333.5z"/>
	<path class="st0" d="M249.7,351.2h-184c-1.4,12-1.5,27.4,0.5,47.2h183.5V351.2z"/>
	<path class="st0" d="M281.7,398.4H98.2c0.6,6,1.4,12.4,2.4,19.3c0,0-0.4,2.4-1,6.5h182.1V398.4z"/>
	<path class="st0" d="M67.7,424.2c-3.1,24-10,105.9,41.3,102.9c0,0,35,5.4,44.8-93.2h14.3c0,0,29.6,40.3,69.9,0h11.7v-9.6H67.7z"/>
	<path class="st0" d="M97.3,270.6c0,0,38.6-24.1,74.4,0.1L97.3,270.6z"/>
	<path class="st0" d="M203.1,366.5c-19.7,0-36.3,13.6-40.9,31.9H244C239.4,380.1,222.8,366.5,203.1,366.5z"/>
	<path class="st0" d="M277.2,408.6c0-3.5-0.4-7-1.3-10.3h-81.8c-0.8,3.3-1.3,6.7-1.3,10.3c0,5.5,1.1,10.7,3,15.5h78.3
		C276.2,419.4,277.2,414.1,277.2,408.6z"/>
	<path class="st0" d="M163.9,424.2c6.2,15.6,21.4,26.6,39.2,26.6s33-11,39.2-26.6H163.9z"/>
	<path class="st1" d="M178.7,424.2c5.1,8.4,14.3,14,24.9,14s19.8-5.6,24.9-14H178.7z"/>
	<path class="st1" d="M264.7,409.1c0-3.8-0.7-7.4-2.1-10.8h-54c-1.3,3.3-2.1,7-2.1,10.8c0,5.5,1.5,10.7,4.2,15h49.8
		C263.1,419.8,264.7,414.6,264.7,409.1z"/>
	<path class="st1" d="M203.6,380.1c-12.3,0-22.7,7.6-27,18.3h54C226.3,387.6,215.9,380.1,203.6,380.1z"/>
	<path class="st0" d="M117.1,398.4c8.6,11.3,21.2,18.4,35.1,18.4s26.5-7.1,35.1-18.4H117.1z"/>
	<path class="st0" d="M135.6,351.2c-0.2,0.2-0.3,0.5-0.4,0.8l-10.1,9.8l10.2,9.9c0.4,0.9,1.2,1.5,2.2,1.5h21.9
		c1.3,0,2.4-1.1,2.4-2.4v-18.2c0-0.5-0.2-1-0.5-1.4H135.6z"/>
	<path class="st0" d="M124.5,350.2h-21.9c-0.8,0-1.5,0.4-1.9,1h25.7C125.9,350.6,125.2,350.2,124.5,350.2z"/>
	<path class="st0" d="M131.6,379c0-1.1-0.7-2-1.7-2.3l-9.8-10.1l-9.9,10.2c-0.9,0.4-1.5,1.2-1.5,2.2v19.4h22.9V379z"/>
	<path class="st0" d="M140.6,398.4v2.6c0,1.3,1.1,2.4,2.4,2.4h18.2c1.3,0,2.4-1.1,2.4-2.4v-2.6H140.6z"/>
	<path class="st0" d="M131.7,322.3c0-1.3-1.1-2.4-2.4-2.4h-18.2c-1.3,0-2.4,1.1-2.4,2.4v11.2h22.9V322.3z"/>
	<polygon class="st0" points="125.6,351.2 115,351.2 120.3,356.6 	"/>
	<path class="st0" d="M95.2,346.4c0.9-0.4,1.5-1.2,1.5-2.2v-10.8H73.8v10.8c0,1.1,0.7,2,1.7,2.3l4.5,4.7h10.6L95.2,346.4z"/>
	<path class="st0" d="M435.9,351.2h-184v47.2h183.5C437.5,378.6,437.3,363.2,435.9,351.2z"/>
	<path class="st0" d="M465,417.7c1-6.9,1.8-13.3,2.4-19.3H283.9v25.8H466C465.5,420.1,465,417.7,465,417.7z"/>
	<path class="st0" d="M251.9,424.2v9.6h11.7c40.3,40.3,69.9,0,69.9,0h14.3c9.9,98.6,44.8,93.2,44.8,93.2
		c51.3,3.1,44.4-78.9,41.3-102.9H251.9z"/>
	<path class="st0" d="M397.4,333.5H216.9v17.7h184C400.1,344.2,398.9,338.4,397.4,333.5z"/>
	<path class="st0" d="M414.4,309.2l-0.2-31.4c1.8-4.5-9.9-7.3-9.9-7.3l-74.4,0.1c-7.2-0.9-7.6,6.3-7.6,6.3v35h-70.4v21.6h180.5
		C425.8,311.6,414.4,309.2,414.4,309.2z"/>
	<path class="st0" d="M404.4,270.6c0,0-38.6-24.1-74.4,0.1L404.4,270.6z"/>
	<path class="st0" d="M298.6,366.5c-19.7,0-36.3,13.6-40.9,31.9h81.8C334.9,380.1,318.3,366.5,298.6,366.5z"/>
	<path class="st0" d="M372.7,408.6c0-3.5-0.4-7-1.3-10.3h-81.8c-0.8,3.3-1.3,6.7-1.3,10.3c0,5.5,1.1,10.7,3,15.5h78.3
		C371.6,419.4,372.7,414.1,372.7,408.6z"/>
	<path class="st0" d="M259.4,424.2c6.2,15.6,21.4,26.6,39.2,26.6s33-11,39.2-26.6H259.4z"/>
	<path class="st1" d="M298.1,380.1c-12.3,0-22.7,7.6-27,18.3h54C320.8,387.6,310.3,380.1,298.1,380.1z"/>
	<path class="st1" d="M359.1,409.1c0-3.8-0.7-7.4-2.1-10.8h-54c-1.3,3.3-2.1,7-2.1,10.8c0,5.5,1.5,10.7,4.2,15H355
		C357.6,419.8,359.1,414.6,359.1,409.1z"/>
	<path class="st1" d="M273.2,424.2c5.1,8.4,14.3,14,24.9,14s19.8-5.6,24.9-14H273.2z"/>
	<path class="st0" d="M381.4,306.5c-17.2,0-32.3,10.8-40.5,27H422C413.8,317.3,398.7,306.5,381.4,306.5z"/>
	<path class="st0" d="M387,333.5h-81.1c-2.7,5.4-4.7,11.3-5.7,17.7h92.5C391.7,344.8,389.7,338.9,387,333.5z"/>
	<path class="st0" d="M428.6,361.6c0-3.6-0.3-7.1-0.9-10.4h-92.5c-0.6,3.4-0.9,6.9-0.9,10.4c0,14.1,4.5,27,12,36.7h70.3
		C424,388.6,428.6,375.7,428.6,361.6z"/>
	<path class="st0" d="M378.3,398.4c8.6,11.3,21.2,18.4,35.1,18.4s26.5-7.1,35.1-18.4H378.3z"/>
	<path class="st0" d="M319.4,346.5c-4.3,0-8.2,1.8-10.9,4.7h21.8C327.6,348.3,323.7,346.5,319.4,346.5z"/>
	<path class="st0" d="M343.5,351.2c-2.6,2.7-4.2,6.4-4.2,10.4c0,8.3,6.8,15.1,15.1,15.1c8.3,0,15.1-6.8,15.1-15.1
		c0-4-1.6-7.7-4.2-10.4H343.5z"/>
	<path class="st0" d="M373.6,346.4c-4.4,0-8.3,1.9-11,4.8h22.1C381.9,348.2,378,346.4,373.6,346.4z"/>
	<path class="st0" d="M397.6,351.2c-2.5,2.7-4.1,6.3-4.1,10.3c0,8.3,6.8,15.1,15.1,15.1c8.3,0,15.1-6.8,15.1-15.1
		c0-4-1.6-7.6-4.1-10.3H397.6z"/>
	<path class="st0" d="M402,398.4c2.8,3.3,6.9,5.4,11.6,5.4s8.8-2.1,11.6-5.4H402z"/>
	<path class="st0" d="M396.7,388.7c0-8.3-6.8-15.1-15.1-15.1s-15.1,6.8-15.1,15.1c0,3.7,1.3,7.1,3.5,9.7h23.2
		C395.4,395.8,396.7,392.4,396.7,388.7z"/>
	<path class="st0" d="M381.4,319.3c-8,0-14.6,6.3-15.1,14.2h30.1C396,325.6,389.5,319.3,381.4,319.3z"/>
	<path class="st0" d="M346.4,349.6c8.3,0,15.1-6.8,15.1-15.1c0-0.3,0-0.6,0-0.9h-30.1c0,0.3,0,0.6,0,0.9
		C331.3,342.8,338.1,349.6,346.4,349.6z"/>
</g>
<g id="Layer_1">
	<path class="st2" d="M265.9,312h-70.4v-35c0,0-0.4-7.2-7.6-6.3l-74.4-0.1c0,0-11.7,2.8-9.9,7.3l-0.2,31.4c0,0-11.4,2.4-18,24.3
		h180.5V312z"/>
	<path class="st2" d="M230.9,333.7H50.4c-1.5,4.9-2.7,10.7-3.5,17.7h184V333.7z"/>
	<path class="st2" d="M265.9,351.4h-184c-1.4,12-1.5,27.4,0.5,47.2h183.5V351.4z"/>
	<path class="st2" d="M297.9,398.5H114.3c0.6,6,1.4,12.4,2.4,19.3c0,0-0.4,2.4-1,6.5h182.1V398.5z"/>
	<path class="st2" d="M83.8,424.3c-3.1,24-10,105.9,41.3,102.9c0,0,35,5.4,44.8-93.2h14.3c0,0,29.6,40.3,69.9,0h11.7v-9.6H83.8z"/>
	<path class="st2" d="M113.4,270.7c0,0,38.6-24.1,74.4,0.1L113.4,270.7z"/>
	<path class="st2" d="M219.2,366.7c-19.7,0-36.3,13.6-40.9,31.9h81.8C255.5,380.2,239,366.7,219.2,366.7z"/>
	<path class="st2" d="M180.1,424.3c6.2,15.6,21.4,26.6,39.2,26.6s33-11,39.2-26.6H180.1z"/>
	<path class="st3" d="M194.8,424.3c5.1,8.4,14.3,14,24.9,14s19.8-5.6,24.9-14H194.8z"/>
	<path class="st3" d="M280.8,409.3c0-3.8-0.7-7.4-2.1-10.8h-54c-1.3,3.3-2.1,7-2.1,10.8c0,5.5,1.5,10.7,4.2,15h49.8
		C279.3,420,280.8,414.8,280.8,409.3z"/>
	<path class="st3" d="M219.7,380.2c-12.3,0-22.7,7.6-27,18.3h54C242.5,387.8,232,380.2,219.7,380.2z"/>
	<path class="st2" d="M136.4,306.7c-17.2,0-32.3,10.8-40.5,27h81.1C168.7,317.5,153.6,306.7,136.4,306.7z"/>
	<path class="st2" d="M183.5,361.8c0-3.6-0.3-7.1-0.9-10.4H90.1c-0.6,3.4-0.9,6.9-0.9,10.4c0,14.1,4.5,27,12,36.7h70.3
		C178.9,388.8,183.5,375.9,183.5,361.8z"/>
	<path class="st2" d="M120.9,351.4H95c-0.2,0.4-0.4,0.8-0.4,1.3v18.2c0,1.3,1.1,2.4,2.4,2.4h21.9c1.1,0,2-0.7,2.3-1.7l10.1-9.8
		l-10.2-9.9C121,351.6,121,351.5,120.9,351.4z"/>
	<path class="st2" d="M151.8,351.4c-0.2,0.2-0.3,0.5-0.4,0.8l-10.1,9.8l10.2,9.9c0.4,0.9,1.2,1.5,2.2,1.5h21.9
		c1.3,0,2.4-1.1,2.4-2.4v-18.2c0-0.5-0.2-1-0.5-1.4H151.8z"/>
	<path class="st2" d="M147.7,379.2c0-1.1-0.7-2-1.7-2.3l-9.8-10.1l-9.9,10.2c-0.9,0.4-1.5,1.2-1.5,2.2v19.4h22.9V379.2z"/>
	<path class="st2" d="M147.8,322.5c0-1.3-1.1-2.4-2.4-2.4h-18.2c-1.3,0-2.4,1.1-2.4,2.4v11.2h22.9V322.5z"/>
	<polygon class="st2" points="141.7,351.4 131.2,351.4 136.4,356.8 	"/>
	<path class="st2" d="M452.1,351.4h-184v47.2h183.5C453.6,378.8,453.5,363.4,452.1,351.4z"/>
	<path class="st2" d="M481.2,417.8c1-6.9,1.8-13.3,2.4-19.3H300.1v25.8h182.1C481.6,420.2,481.2,417.8,481.2,417.8z"/>
	<path class="st2" d="M268.1,424.3v9.6h11.7c40.3,40.3,69.9,0,69.9,0H364c9.9,98.6,44.8,93.2,44.8,93.2
		c51.3,3.1,44.4-78.9,41.3-102.9H268.1z"/>
	<path class="st2" d="M413.6,333.7H233.1v17.7h184C416.3,344.4,415,338.5,413.6,333.7z"/>
	<path class="st2" d="M430.5,309.3l-0.2-31.4c1.8-4.5-9.9-7.3-9.9-7.3l-74.4,0.1c-7.2-0.9-7.6,6.3-7.6,6.3v35h-70.4v21.6h180.5
		C442,311.8,430.5,309.3,430.5,309.3z"/>
	<path class="st2" d="M420.5,270.7c0,0-38.6-24.1-74.4,0.1L420.5,270.7z"/>
	<path class="st2" d="M314.7,366.7c-19.7,0-36.3,13.6-40.9,31.9h81.8C351,380.2,334.4,366.7,314.7,366.7z"/>
	<path class="st2" d="M275.5,424.3c6.2,15.6,21.4,26.6,39.2,26.6s33-11,39.2-26.6H275.5z"/>
	<path class="st3" d="M314.2,380.2c-12.3,0-22.7,7.6-27,18.3h54C336.9,387.8,326.5,380.2,314.2,380.2z"/>
	<path class="st3" d="M375.3,409.3c0-3.8-0.7-7.4-2.1-10.8h-54c-1.3,3.3-2.1,7-2.1,10.8c0,5.5,1.5,10.7,4.2,15h49.8
		C373.7,420,375.3,414.8,375.3,409.3z"/>
	<path class="st3" d="M289.3,424.3c5.1,8.4,14.3,14,24.9,14s19.8-5.6,24.9-14H289.3z"/>
	<path class="st2" d="M397.6,306.7c-17.2,0-32.3,10.8-40.5,27h81.1C429.9,317.5,414.8,306.7,397.6,306.7z"/>
	<path class="st2" d="M444.7,361.8c0-3.6-0.3-7.1-0.9-10.4h-92.5c-0.6,3.4-0.9,6.9-0.9,10.4c0,14.1,4.5,27,12,36.7h70.3
		C440.2,388.8,444.7,375.9,444.7,361.8z"/>
	<path class="st2" d="M359.6,351.4c-2.6,2.7-4.2,6.4-4.2,10.4c0,8.3,6.8,15.1,15.1,15.1c8.3,0,15.1-6.8,15.1-15.1
		c0-4-1.6-7.7-4.2-10.4H359.6z"/>
	<path class="st2" d="M413.7,351.4c-2.5,2.7-4.1,6.3-4.1,10.3c0,8.3,6.8,15.1,15.1,15.1c8.3,0,15.1-6.8,15.1-15.1
		c0-4-1.6-7.6-4.1-10.3H413.7z"/>
	<path class="st2" d="M412.8,388.8c0-8.3-6.8-15.1-15.1-15.1s-15.1,6.8-15.1,15.1c0,3.7,1.3,7.1,3.5,9.7h23.2
		C411.5,395.9,412.8,392.5,412.8,388.8z"/>
	<path class="st2" d="M397.6,319.5c-8,0-14.6,6.3-15.1,14.2h30.1C412.2,325.8,405.6,319.5,397.6,319.5z"/>
	<path class="st4" d="M619.2,516.8"/>
</g>
<g id="Layer_4">
</g>
<g id="Layer_8">
	<g>
		<g>
			<path class="st5" d="M595.7,363.6c0.8-0.7,1.7-1.3,2.7-1.8h-24.1c-1.7,2.3-3.2,4.8-4.4,7.4h20.6
				C592,367.1,593.8,365.2,595.7,363.6z"/>
			<polygon class="st5" points="671.3,361.8 654,361.8 652.6,369.2 669.9,369.2 			"/>
			<polygon class="st5" points="729.3,361.8 712,361.8 710.6,369.2 727.9,369.2 			"/>
			<polygon class="st5" points="777.1,361.8 759.8,361.8 758.4,369.2 775.7,369.2 			"/>
			<path class="st5" d="M828.2,362.9c0.5-0.4,1-0.8,1.5-1.1H807c-1.6,2.3-3,4.8-4.2,7.4h19.8C824.2,366.8,826.1,364.7,828.2,362.9z"
				/>
			<polygon class="st5" points="893.6,361.8 876.3,361.8 874.9,369.2 892.2,369.2 			"/>
			<polygon class="st5" points="940.2,361.8 922.9,361.8 921.5,369.2 938.8,369.2 			"/>
			<polygon class="st5" points="973.4,361.8 956.2,361.8 954.7,369.2 972,369.2 			"/>
			<polygon class="st5" points="1035.3,361.8 1018.3,361.8 1016.8,369.2 1033.9,369.2 			"/>
			<path class="st5" d="M1073.3,363c0-0.4,0-0.8,0-1.2h-18.7c0.5,1.1,0.8,2.3,0.8,3.7c0,1.3-0.2,2.5-0.5,3.7h17.7
				C1073,367.3,1073.3,365.2,1073.3,363z"/>
		</g>
		<g>
			<path class="st5" d="M612.9,391.7h12.5l-3.2,17c-1.9,0.8-4.8,1.4-8.7,1.4c-12.7,0-20.7-6.8-20.7-20.4c0-7.9,2.4-15.1,6.4-20.6
				h-20.6c-3.1,6.5-4.9,13.8-4.9,21.8c0,10.3,3.7,19.2,10.2,24.9c6.7,6,15.8,8.9,27,8.9c10.2,0,19.9-2.5,26.1-4.6l8-42.3h-29.4
				L612.9,391.7z"/>
			<polygon class="st5" points="678.5,369.2 661.2,369.2 650.8,423.9 699.1,423.9 702,408.8 670.9,408.8 			"/>
			<polygon class="st5" points="719.2,369.2 708.8,423.9 726.1,423.9 736.5,369.2 			"/>
			<polygon class="st5" points="767,369.2 756.8,423.9 774,423.9 784.3,369.2 			"/>
			<path class="st5" d="M847.1,410.4c-14.3,0-21.5-8.6-21.5-21.5c0-7.7,2-14.5,5.5-19.7h-19.8c-2.9,6.3-4.5,13.6-4.5,21.6
				c0,21.3,14.4,34.3,35.7,34.3c9.7,0,17-1.6,21.3-3.5l-1.4-13.9C858.4,409.4,852.8,410.4,847.1,410.4z"/>
			<polygon class="st5" points="930.1,369.2 929.1,374.7 899.7,374.7 900.8,369.2 883.5,369.2 873.1,423.9 890.4,423.9 896.9,390 
				926.1,390 919.8,423.9 937,423.9 947.4,369.2 			"/>
			<polygon class="st5" points="980.6,369.2 963.3,369.2 953,423.9 1002.4,423.9 1005.2,409.2 973,409.2 976.7,389.6 1005.4,389.6 
				1008.2,375.1 979.4,375.1 			"/>
			<path class="st5" d="M1081.1,369.2h-17.7c-1.8,5.9-7.8,9.9-15.6,9.9h-7.2l1.9-9.9h-17l-10.5,54.7h17.1l6-31.9h5.3
				c6.8,0,10.2,3,10.9,12.8c0.8,9.9,1.7,16.9,2.4,19.1h17.7c-1.4-3.4-2.2-13.9-3.1-22.9c-0.8-7.3-2.9-12.7-7.7-14.7v-0.5
				C1072,383.1,1078.9,377.6,1081.1,369.2z"/>
		</g>
		<g>
			<path class="st5" d="M624.9,357.2c7.2,0,13.4,1.7,17.1,3.4l5.2-14.6c-3.1-1.6-10.9-3.6-21.5-3.6c-14,0-26.5,4.2-35.6,11.7
				c-2.7,2.3-5.1,4.9-7.2,7.8H607C612,358.8,618.1,357.2,624.9,357.2z"/>
			<polygon class="st5" points="683.4,343.1 666.1,343.1 662.6,361.8 679.9,361.8 			"/>
			<polygon class="st5" points="741.4,343.1 724.2,343.1 720.6,361.8 737.9,361.8 			"/>
			<polygon class="st5" points="786.4,358.2 807.9,358.2 810.8,343.1 750.8,343.1 747.8,358.2 769.1,358.2 768.4,361.8 785.7,361.8 
							"/>
			<path class="st5" d="M855.3,356.7c7,0,12.2,1.4,14.6,2.6l4.7-14c-2.3-1.4-8.9-3.5-17.6-3.5c-11.4,0-21.3,2.8-29.7,8.6
				c-4.5,3-8.5,6.8-11.7,11.4h22.7C843,358.5,849,356.7,855.3,356.7z"/>
			<polygon class="st5" points="905.7,343.1 888.5,343.1 884.9,361.8 902.2,361.8 			"/>
			<polygon class="st5" points="952.4,343.1 935.1,343.1 931.5,361.8 948.8,361.8 			"/>
			<polygon class="st5" points="982.8,357.9 1013.2,357.9 1016.1,343.1 968.3,343.1 964.7,361.8 982,361.8 			"/>
			<path class="st5" d="M1044.9,356.8c1.4-0.4,3.5-0.6,6.7-0.6c5.3,0,9.8,1.8,11.6,5.6h18.7c-0.4-6.9-4-11.7-9-14.6
				c-5.6-3.5-13.5-4.7-21.2-4.7c-8,0-16.2,0.8-21.6,2.2l-3.3,17.1h17.1L1044.9,356.8z"/>
		</g>
	</g>
	<g>
		<g>
			<path class="st6" d="M599.5,366.2c0.8-0.7,1.7-1.3,2.7-1.8h-24.1c-1.7,2.3-3.2,4.8-4.4,7.4h20.6
				C595.8,369.7,597.5,367.8,599.5,366.2z"/>
			<polygon class="st6" points="675.1,364.4 657.8,364.4 656.4,371.8 673.7,371.8 			"/>
			<polygon class="st6" points="733.1,364.4 715.8,364.4 714.4,371.8 731.7,371.8 			"/>
			<polygon class="st6" points="780.9,364.4 763.6,364.4 762.2,371.8 779.5,371.8 			"/>
			<path class="st6" d="M832,365.5c0.5-0.4,1-0.8,1.5-1.1h-22.7c-1.6,2.3-3,4.8-4.2,7.4h19.8C828,369.4,829.9,367.3,832,365.5z"/>
			<polygon class="st6" points="897.4,364.4 880.1,364.4 878.7,371.8 896,371.8 			"/>
			<polygon class="st6" points="944,364.4 926.7,364.4 925.3,371.8 942.6,371.8 			"/>
			<polygon class="st6" points="977.2,364.4 959.9,364.4 958.5,371.8 975.8,371.8 			"/>
			<polygon class="st6" points="1039.1,364.4 1022,364.4 1020.6,371.8 1037.7,371.8 			"/>
			<path class="st6" d="M1077.1,365.6c0-0.4,0-0.8,0-1.2h-18.7c0.5,1.1,0.8,2.3,0.8,3.7c0,1.3-0.2,2.5-0.5,3.7h17.7
				C1076.8,369.9,1077.1,367.8,1077.1,365.6z"/>
		</g>
		<g>
			<path class="st6" d="M616.7,394.3h12.5l-3.2,17c-1.9,0.8-4.8,1.4-8.7,1.4c-12.7,0-20.7-6.8-20.7-20.4c0-7.9,2.4-15.1,6.4-20.6
				h-20.6c-3.1,6.5-4.9,13.8-4.9,21.8c0,10.3,3.7,19.2,10.2,24.9c6.7,6,15.8,8.9,27,8.9c10.2,0,19.9-2.5,26.1-4.6l8-42.3h-29.4
				L616.7,394.3z"/>
			<polygon class="st6" points="682.3,371.8 665,371.8 654.6,426.5 702.9,426.5 705.8,411.4 674.7,411.4 			"/>
			<polygon class="st6" points="723,371.8 712.6,426.5 729.9,426.5 740.3,371.8 			"/>
			<polygon class="st6" points="770.8,371.8 760.5,426.5 777.8,426.5 788.1,371.8 			"/>
			<path class="st6" d="M850.9,413c-14.3,0-21.5-8.6-21.5-21.5c0-7.7,2-14.5,5.5-19.7h-19.8c-2.9,6.3-4.5,13.6-4.5,21.6
				c0,21.3,14.4,34.3,35.7,34.3c9.7,0,17-1.6,21.3-3.5l-1.4-13.9C862.2,412,856.6,413,850.9,413z"/>
			<polygon class="st6" points="933.9,371.8 932.9,377.3 903.5,377.3 904.6,371.8 887.3,371.8 876.9,426.5 894.2,426.5 900.7,392.6 
				929.9,392.6 923.5,426.5 940.8,426.5 951.2,371.8 			"/>
			<polygon class="st6" points="984.4,371.8 967.1,371.8 956.7,426.5 1006.2,426.5 1009,411.8 976.8,411.8 980.5,392.2 
				1009.2,392.2 1012,377.7 983.2,377.7 			"/>
			<path class="st6" d="M1084.9,371.8h-17.7c-1.8,5.9-7.8,9.9-15.6,9.9h-7.2l1.9-9.9h-17l-10.5,54.7h17.1l6-31.9h5.3
				c6.8,0,10.2,3,10.9,12.8c0.8,9.9,1.7,16.9,2.4,19.1h17.7c-1.4-3.4-2.2-13.9-3.1-22.9c-0.8-7.3-2.9-12.7-7.7-14.7v-0.5
				C1075.8,385.7,1082.7,380.2,1084.9,371.8z"/>
		</g>
		<g>
			<path class="st6" d="M628.7,359.8c7.2,0,13.4,1.7,17.1,3.4l5.2-14.6c-3.1-1.6-10.9-3.6-21.5-3.6c-14,0-26.5,4.2-35.6,11.7
				c-2.7,2.3-5.1,4.9-7.2,7.8h24.1C615.8,361.4,621.9,359.8,628.7,359.8z"/>
			<polygon class="st6" points="687.2,345.7 669.9,345.7 666.4,364.4 683.7,364.4 			"/>
			<polygon class="st6" points="745.2,345.7 727.9,345.7 724.4,364.4 741.7,364.4 			"/>
			<polygon class="st6" points="790.2,360.8 811.7,360.8 814.6,345.7 754.6,345.7 751.6,360.8 772.9,360.8 772.2,364.4 789.5,364.4 
							"/>
			<path class="st6" d="M859.1,359.3c7,0,12.2,1.4,14.6,2.6l4.7-14c-2.3-1.4-8.9-3.5-17.6-3.5c-11.4,0-21.3,2.8-29.7,8.6
				c-4.5,3-8.5,6.8-11.7,11.4h22.7C846.8,361.1,852.8,359.3,859.1,359.3z"/>
			<polygon class="st6" points="909.5,345.7 892.3,345.7 888.7,364.4 906,364.4 			"/>
			<polygon class="st6" points="956.1,345.7 938.9,345.7 935.3,364.4 952.6,364.4 			"/>
			<polygon class="st6" points="986.6,360.5 1017,360.5 1019.9,345.7 972.1,345.7 968.5,364.4 985.8,364.4 			"/>
			<path class="st6" d="M1048.7,359.4c1.4-0.4,3.5-0.6,6.7-0.6c5.3,0,9.8,1.8,11.6,5.6h18.7c-0.4-6.9-4-11.7-9-14.6
				c-5.6-3.5-13.5-4.7-21.2-4.7c-8,0-16.2,0.8-21.6,2.2l-3.3,17.1h17.1L1048.7,359.4z"/>
		</g>
	</g>
	<g>
		<g>
			<path class="st7" d="M601.3,369.4c0.8-0.7,1.7-1.3,2.7-1.8h-24.1c-1.7,2.3-3.2,4.8-4.4,7.4H596
				C597.6,372.9,599.4,371,601.3,369.4z"/>
			<polygon class="st7" points="676.9,367.6 659.6,367.6 658.2,375 675.5,375 			"/>
			<polygon class="st7" points="734.9,367.6 717.6,367.6 716.2,375 733.5,375 			"/>
			<polygon class="st7" points="782.7,367.6 765.4,367.6 764,375 781.3,375 			"/>
			<path class="st7" d="M833.8,368.7c0.5-0.4,1-0.8,1.5-1.1h-22.7c-1.6,2.3-3,4.8-4.2,7.4h19.8C829.8,372.6,831.7,370.5,833.8,368.7
				z"/>
			<polygon class="st7" points="899.2,367.6 881.9,367.6 880.5,375 897.8,375 			"/>
			<polygon class="st7" points="945.8,367.6 928.6,367.6 927.1,375 944.4,375 			"/>
			<polygon class="st7" points="979,367.6 961.8,367.6 960.4,375 977.6,375 			"/>
			<polygon class="st7" points="1040.9,367.6 1023.9,367.6 1022.4,375 1039.5,375 			"/>
			<path class="st7" d="M1078.9,368.8c0-0.4,0-0.8,0-1.2h-18.7c0.5,1.1,0.8,2.3,0.8,3.7c0,1.3-0.2,2.5-0.5,3.7h17.7
				C1078.6,373.1,1078.9,371.1,1078.9,368.8z"/>
		</g>
		<g>
			<path class="st7" d="M618.5,397.5H631l-3.2,17c-1.9,0.8-4.8,1.4-8.7,1.4c-12.7,0-20.7-6.8-20.7-20.4c0-7.9,2.4-15.1,6.4-20.6
				h-20.6c-3.1,6.5-4.9,13.8-4.9,21.8c0,10.3,3.7,19.2,10.2,24.9c6.7,6,15.8,8.9,27,8.9c10.2,0,19.9-2.5,26.1-4.6l8-42.3h-29.4
				L618.5,397.5z"/>
			<polygon class="st7" points="684.1,375 666.8,375 656.4,429.7 704.7,429.7 707.6,414.6 676.5,414.6 			"/>
			<polygon class="st7" points="724.8,375 714.4,429.7 731.7,429.7 742.1,375 			"/>
			<polygon class="st7" points="772.6,375 762.4,429.7 779.6,429.7 789.9,375 			"/>
			<path class="st7" d="M852.7,416.2c-14.3,0-21.5-8.6-21.5-21.5c0-7.7,2-14.5,5.5-19.7H817c-2.9,6.3-4.5,13.6-4.5,21.6
				c0,21.3,14.4,34.3,35.7,34.3c9.7,0,17-1.6,21.3-3.5l-1.4-13.9C864,415.2,858.4,416.2,852.7,416.2z"/>
			<polygon class="st7" points="935.7,375 934.7,380.5 905.3,380.5 906.4,375 889.1,375 878.7,429.7 896,429.7 902.5,395.8 
				931.7,395.8 925.4,429.7 942.6,429.7 953,375 			"/>
			<polygon class="st7" points="986.2,375 968.9,375 958.6,429.7 1008.1,429.7 1010.8,415 978.6,415 982.3,395.5 1011,395.5 
				1013.8,381 985,381 			"/>
			<path class="st7" d="M1086.7,375H1069c-1.8,5.9-7.8,9.9-15.6,9.9h-7.2l1.9-9.9h-17l-10.5,54.7h17.1l6-31.9h5.3
				c6.8,0,10.2,3,10.9,12.8c0.8,9.9,1.7,16.9,2.4,19.1h17.7c-1.4-3.4-2.2-13.9-3.1-22.9c-0.8-7.3-2.9-12.7-7.7-14.7v-0.5
				C1077.6,388.9,1084.5,383.4,1086.7,375z"/>
		</g>
		<g>
			<path class="st7" d="M630.5,363c7.2,0,13.4,1.7,17.1,3.4l5.2-14.6c-3.1-1.6-10.9-3.6-21.5-3.6c-14,0-26.5,4.2-35.6,11.7
				c-2.7,2.3-5.1,4.9-7.2,7.8h24.1C617.6,364.6,623.7,363,630.5,363z"/>
			<polygon class="st7" points="689,349 671.7,349 668.2,367.6 685.5,367.6 			"/>
			<polygon class="st7" points="747,349 729.8,349 726.2,367.6 743.5,367.6 			"/>
			<polygon class="st7" points="792,364.1 813.5,364.1 816.4,349 756.4,349 753.4,364.1 774.7,364.1 774,367.6 791.3,367.6 			"/>
			<path class="st7" d="M860.9,362.5c7,0,12.2,1.4,14.6,2.6l4.7-14c-2.3-1.4-8.9-3.5-17.6-3.5c-11.4,0-21.3,2.8-29.7,8.6
				c-4.5,3-8.5,6.8-11.7,11.4h22.7C848.6,364.3,854.6,362.5,860.9,362.5z"/>
			<polygon class="st7" points="911.3,349 894.1,349 890.5,367.6 907.8,367.6 			"/>
			<polygon class="st7" points="958,349 940.7,349 937.1,367.6 954.4,367.6 			"/>
			<polygon class="st7" points="988.4,363.7 1018.8,363.7 1021.7,349 973.9,349 970.3,367.6 987.6,367.6 			"/>
			<path class="st7" d="M1050.5,362.6c1.4-0.4,3.5-0.6,6.7-0.6c5.3,0,9.8,1.8,11.6,5.6h18.7c-0.4-6.9-4-11.7-9-14.6
				c-5.6-3.5-13.5-4.7-21.2-4.7c-8,0-16.2,0.8-21.6,2.2l-3.3,17.1h17.1L1050.5,362.6z"/>
		</g>
	</g>
</g>
<g id="Layer_3">
</g>
<g id="Layer_7">
	<polygon class="st8" points="479.7,283.2 470.6,260.3 449.9,273.3 467,254.4 450.1,241.9 470.5,249.3 480.8,230 477.6,251.8 
		498.3,257.9 477.1,258 	"/>
	<polygon class="st9" points="524.9,292.6 510.2,285.6 498.2,296.5 505.2,281.1 494.3,269.8 508.9,276.1 521,265.9 514,280.5 	"/>
	<path class="st9" d="M462.4,311.3c0,0,17.1-25.7,40.8-31.6l5.7,4.9C508.9,284.6,487.1,283.6,462.4,311.3z"/>
</g>
</svg>
