<?xml version="1.0" encoding="utf-8"?>
<!-- Generator: Adobe Illustrator 22.1.0, SVG Export Plug-In . SVG Version: 6.00 Build 0)  -->
<svg version="1.1" xmlns="http://www.w3.org/2000/svg" xmlns:xlink="http://www.w3.org/1999/xlink" x="0px" y="0px"
	 viewBox="0 0 1115.1 788.4" style="enable-background:new 0 0 1115.1 788.4;" xml:space="preserve">
<style type="text/css">
	.st0{opacity:0.69;fill:#3F3F3F;stroke:#60F741;stroke-miterlimit:10;}
	.st1{opacity:0.69;fill:#60F741;}
	.st2{fill:#D3D3D1;stroke:#A120B7;stroke-width:3;stroke-miterlimit:10;}
	.st3{fill:#A120B7;}
	.st4{fill:#8C8C8C;}
	.st5{fill:#D227E0;}
	.st6{opacity:0.67;}
	.st7{fill:#38F438;}
	.st8{fill:#FFF252;}
	.st9{fill:#FFF252;stroke:#FFF252;stroke-miterlimit:10;}
</style>
<g id="Layer_2">
</g>
<g id="Layer_10">
	<path class="st0" d="M280.7,299.9h-70.4v-35c0,0-0.4-7.2-7.6-6.3l-74.4-0.1c0,0-11.7,2.8-9.9,7.3l-0.2,31.4c0,0-11.4,2.4-18,24.3
		h180.5V299.9z"/>
	<path class="st0" d="M245.7,321.5H65.2c-1.5,4.9-2.7,10.7-3.5,17.7h184V321.5z"/>
	<path class="st0" d="M280.7,339.2h-184c-1.4,12-1.5,27.4,0.5,47.2h183.5V339.2z"/>
	<path class="st0" d="M312.7,386.4H129.2c0.6,6,1.4,12.4,2.4,19.3c0,0-0.4,2.4-1,6.5h182.1V386.4z"/>
	<path class="st0" d="M98.7,412.2c-3.1,24-10,105.9,41.3,102.9c0,0,35,5.4,44.8-93.2h14.3c0,0,29.6,40.3,69.9,0h11.7v-9.6H98.7z"/>
	<path class="st0" d="M128.3,258.6c0,0,38.6-24.1,74.4,0.1L128.3,258.6z"/>
	<path class="st0" d="M234.1,354.5c-19.7,0-36.3,13.6-40.9,31.9H275C270.4,368.1,253.8,354.5,234.1,354.5z"/>
	<path class="st0" d="M308.2,396.6c0-3.5-0.4-7-1.3-10.3h-81.8c-0.8,3.3-1.3,6.7-1.3,10.3c0,5.5,1.1,10.7,3,15.5h78.3
		C307.2,407.4,308.2,402.1,308.2,396.6z"/>
	<path class="st0" d="M194.9,412.2c6.2,15.6,21.4,26.6,39.2,26.6s33-11,39.2-26.6H194.9z"/>
	<path class="st1" d="M209.7,412.2c5.1,8.4,14.3,14,24.9,14s19.8-5.6,24.9-14H209.7z"/>
	<path class="st1" d="M295.7,397.1c0-3.8-0.7-7.4-2.1-10.8h-54c-1.3,3.3-2.1,7-2.1,10.8c0,5.5,1.5,10.7,4.2,15h49.8
		C294.1,407.8,295.7,402.6,295.7,397.1z"/>
	<path class="st1" d="M234.6,368.1c-12.3,0-22.7,7.6-27,18.3h54C257.3,375.6,246.9,368.1,234.6,368.1z"/>
	<path class="st0" d="M148.1,386.4c8.6,11.3,21.2,18.4,35.1,18.4s26.5-7.1,35.1-18.4H148.1z"/>
	<path class="st0" d="M166.6,339.2c-0.2,0.2-0.3,0.5-0.4,0.8l-10.1,9.8l10.2,9.9c0.4,0.9,1.2,1.5,2.2,1.5h21.9
		c1.3,0,2.4-1.1,2.4-2.4v-18.2c0-0.5-0.2-1-0.5-1.4H166.6z"/>
	<path class="st0" d="M155.5,338.2h-21.9c-0.8,0-1.5,0.4-1.9,1h25.7C156.9,338.6,156.2,338.2,155.5,338.2z"/>
	<path class="st0" d="M162.6,367c0-1.1-0.7-2-1.7-2.3l-9.8-10.1l-9.9,10.2c-0.9,0.4-1.5,1.2-1.5,2.2v19.4h22.9V367z"/>
	<path class="st0" d="M171.6,386.4v2.6c0,1.3,1.1,2.4,2.4,2.4h18.2c1.3,0,2.4-1.1,2.4-2.4v-2.6H171.6z"/>
	<path class="st0" d="M162.7,310.3c0-1.3-1.1-2.4-2.4-2.4h-18.2c-1.3,0-2.4,1.1-2.4,2.4v11.2h22.9V310.3z"/>
	<polygon class="st0" points="156.6,339.2 146,339.2 151.3,344.6 	"/>
	<path class="st0" d="M126.2,334.4c0.9-0.4,1.5-1.2,1.5-2.2v-10.8h-22.9v10.8c0,1.1,0.7,2,1.7,2.3l4.5,4.7h10.6L126.2,334.4z"/>
	<path class="st0" d="M466.9,339.2h-184v47.2h183.5C468.5,366.6,468.3,351.2,466.9,339.2z"/>
	<path class="st0" d="M496,405.7c1-6.9,1.8-13.3,2.4-19.3H314.9v25.8H497C496.5,408.1,496,405.7,496,405.7z"/>
	<path class="st0" d="M282.9,412.2v9.6h11.7c40.3,40.3,69.9,0,69.9,0h14.3c9.9,98.6,44.8,93.2,44.8,93.2
		c51.3,3.1,44.4-78.9,41.3-102.9H282.9z"/>
	<path class="st0" d="M428.4,321.5H247.9v17.7h184C431.1,332.2,429.9,326.4,428.4,321.5z"/>
	<path class="st0" d="M445.4,297.2l-0.2-31.4c1.8-4.5-9.9-7.3-9.9-7.3l-74.4,0.1c-7.2-0.9-7.6,6.3-7.6,6.3v35h-70.4v21.6h180.5
		C456.8,299.6,445.4,297.2,445.4,297.2z"/>
	<path class="st0" d="M435.4,258.6c0,0-38.6-24.1-74.4,0.1L435.4,258.6z"/>
	<path class="st0" d="M329.6,354.5c-19.7,0-36.3,13.6-40.9,31.9h81.8C365.9,368.1,349.3,354.5,329.6,354.5z"/>
	<path class="st0" d="M403.7,396.6c0-3.5-0.4-7-1.3-10.3h-81.8c-0.8,3.3-1.3,6.7-1.3,10.3c0,5.5,1.1,10.7,3,15.5h78.3
		C402.6,407.4,403.7,402.1,403.7,396.6z"/>
	<path class="st0" d="M290.4,412.2c6.2,15.6,21.4,26.6,39.2,26.6s33-11,39.2-26.6H290.4z"/>
	<path class="st1" d="M329.1,368.1c-12.3,0-22.7,7.6-27,18.3h54C351.8,375.6,341.3,368.1,329.1,368.1z"/>
	<path class="st1" d="M390.1,397.1c0-3.8-0.7-7.4-2.1-10.8h-54c-1.3,3.3-2.1,7-2.1,10.8c0,5.5,1.5,10.7,4.2,15H386
		C388.6,407.8,390.1,402.6,390.1,397.1z"/>
	<path class="st1" d="M304.2,412.2c5.1,8.4,14.3,14,24.9,14s19.8-5.6,24.9-14H304.2z"/>
	<path class="st0" d="M412.4,294.5c-17.2,0-32.3,10.8-40.5,27H453C444.8,305.3,429.7,294.5,412.4,294.5z"/>
	<path class="st0" d="M418,321.5h-81.1c-2.7,5.4-4.7,11.3-5.7,17.7h92.5C422.7,332.8,420.7,326.9,418,321.5z"/>
	<path class="st0" d="M459.6,349.6c0-3.6-0.3-7.1-0.9-10.4h-92.5c-0.6,3.4-0.9,6.9-0.9,10.4c0,14.1,4.5,27,12,36.7h70.3
		C455,376.6,459.6,363.7,459.6,349.6z"/>
	<path class="st0" d="M409.3,386.4c8.6,11.3,21.2,18.4,35.1,18.4s26.5-7.1,35.1-18.4H409.3z"/>
	<path class="st0" d="M350.4,334.5c-4.3,0-8.2,1.8-10.9,4.7h21.8C358.6,336.3,354.7,334.5,350.4,334.5z"/>
	<path class="st0" d="M374.5,339.2c-2.6,2.7-4.2,6.4-4.2,10.4c0,8.3,6.8,15.1,15.1,15.1c8.3,0,15.1-6.8,15.1-15.1
		c0-4-1.6-7.7-4.2-10.4H374.5z"/>
	<path class="st0" d="M404.6,334.4c-4.4,0-8.3,1.9-11,4.8h22.1C412.9,336.2,409,334.4,404.6,334.4z"/>
	<path class="st0" d="M428.6,339.2c-2.5,2.7-4.1,6.3-4.1,10.3c0,8.3,6.8,15.1,15.1,15.1c8.3,0,15.1-6.8,15.1-15.1
		c0-4-1.6-7.6-4.1-10.3H428.6z"/>
	<path class="st0" d="M433,386.4c2.8,3.3,6.9,5.4,11.6,5.4s8.8-2.1,11.6-5.4H433z"/>
	<path class="st0" d="M427.7,376.7c0-8.3-6.8-15.1-15.1-15.1s-15.1,6.8-15.1,15.1c0,3.7,1.3,7.1,3.5,9.7h23.2
		C426.4,383.8,427.7,380.4,427.7,376.7z"/>
	<path class="st0" d="M412.4,307.3c-8,0-14.6,6.3-15.1,14.2h30.1C427,313.6,420.5,307.3,412.4,307.3z"/>
	<path class="st0" d="M377.4,337.6c8.3,0,15.1-6.8,15.1-15.1c0-0.3,0-0.6,0-0.9h-30.1c0,0.3,0,0.6,0,0.9
		C362.3,330.8,369.1,337.6,377.4,337.6z"/>
</g>
<g id="Layer_1">
	<path class="st2" d="M296.9,300h-70.4v-35c0,0-0.4-7.2-7.6-6.3l-74.4-0.1c0,0-11.7,2.8-9.9,7.3l-0.2,31.4c0,0-11.4,2.4-18,24.3
		h180.5V300z"/>
	<path class="st2" d="M261.9,321.7H81.4c-1.5,4.9-2.7,10.7-3.5,17.7h184V321.7z"/>
	<path class="st2" d="M296.9,339.4h-184c-1.4,12-1.5,27.4,0.5,47.2h183.5V339.4z"/>
	<path class="st2" d="M328.9,386.5H145.3c0.6,6,1.4,12.4,2.4,19.3c0,0-0.4,2.4-1,6.5h182.1V386.5z"/>
	<path class="st2" d="M114.8,412.3c-3.1,24-10,105.9,41.3,102.9c0,0,35,5.4,44.8-93.2h14.3c0,0,29.6,40.3,69.9,0h11.7v-9.6H114.8z"
		/>
	<path class="st2" d="M144.4,258.7c0,0,38.6-24.1,74.4,0.1L144.4,258.7z"/>
	<path class="st2" d="M250.2,354.7c-19.7,0-36.3,13.6-40.9,31.9h81.8C286.5,368.2,270,354.7,250.2,354.7z"/>
	<path class="st2" d="M211.1,412.3c6.2,15.6,21.4,26.6,39.2,26.6s33-11,39.2-26.6H211.1z"/>
	<path class="st3" d="M225.8,412.3c5.1,8.4,14.3,14,24.9,14s19.8-5.6,24.9-14H225.8z"/>
	<path class="st3" d="M311.8,397.3c0-3.8-0.7-7.4-2.1-10.8h-54c-1.3,3.3-2.1,7-2.1,10.8c0,5.5,1.5,10.7,4.2,15h49.8
		C310.3,408,311.8,402.8,311.8,397.3z"/>
	<path class="st3" d="M250.7,368.2c-12.3,0-22.7,7.6-27,18.3h54C273.5,375.8,263,368.2,250.7,368.2z"/>
	<path class="st2" d="M167.4,294.7c-17.2,0-32.3,10.8-40.5,27h81.1C199.7,305.5,184.6,294.7,167.4,294.7z"/>
	<path class="st2" d="M214.5,349.8c0-3.6-0.3-7.1-0.9-10.4h-92.5c-0.6,3.4-0.9,6.9-0.9,10.4c0,14.1,4.5,27,12,36.7h70.3
		C209.9,376.8,214.5,363.9,214.5,349.8z"/>
	<path class="st2" d="M151.9,339.4H126c-0.2,0.4-0.4,0.8-0.4,1.3v18.2c0,1.3,1.1,2.4,2.4,2.4h21.9c1.1,0,2-0.7,2.3-1.7l10.1-9.8
		l-10.2-9.9C152,339.6,152,339.5,151.9,339.4z"/>
	<path class="st2" d="M182.8,339.4c-0.2,0.2-0.3,0.5-0.4,0.8l-10.1,9.8l10.2,9.9c0.4,0.9,1.2,1.5,2.2,1.5h21.9
		c1.3,0,2.4-1.1,2.4-2.4v-18.2c0-0.5-0.2-1-0.5-1.4H182.8z"/>
	<path class="st2" d="M178.7,367.2c0-1.1-0.7-2-1.7-2.3l-9.8-10.1l-9.9,10.2c-0.9,0.4-1.5,1.2-1.5,2.2v19.4h22.9V367.2z"/>
	<path class="st2" d="M178.8,310.5c0-1.3-1.1-2.4-2.4-2.4h-18.2c-1.3,0-2.4,1.1-2.4,2.4v11.2h22.9V310.5z"/>
	<polygon class="st2" points="172.7,339.4 162.2,339.4 167.4,344.8 	"/>
	<path class="st2" d="M483.1,339.4h-184v47.2h183.5C484.6,366.8,484.5,351.4,483.1,339.4z"/>
	<path class="st2" d="M512.2,405.8c1-6.9,1.8-13.3,2.4-19.3H331.1v25.8h182.1C512.6,408.2,512.2,405.8,512.2,405.8z"/>
	<path class="st2" d="M299.1,412.3v9.6h11.7c40.3,40.3,69.9,0,69.9,0H395c9.9,98.6,44.8,93.2,44.8,93.2
		c51.3,3.1,44.4-78.9,41.3-102.9H299.1z"/>
	<path class="st2" d="M444.6,321.7H264.1v17.7h184C447.3,332.4,446,326.5,444.6,321.7z"/>
	<path class="st2" d="M461.5,297.3l-0.2-31.4c1.8-4.5-9.9-7.3-9.9-7.3l-74.4,0.1c-7.2-0.9-7.6,6.3-7.6,6.3v35h-70.4v21.6h180.5
		C473,299.8,461.5,297.3,461.5,297.3z"/>
	<path class="st2" d="M451.5,258.7c0,0-38.6-24.1-74.4,0.1L451.5,258.7z"/>
	<path class="st2" d="M345.7,354.7c-19.7,0-36.3,13.6-40.9,31.9h81.8C382,368.2,365.4,354.7,345.7,354.7z"/>
	<path class="st2" d="M306.5,412.3c6.2,15.6,21.4,26.6,39.2,26.6s33-11,39.2-26.6H306.5z"/>
	<path class="st3" d="M345.2,368.2c-12.3,0-22.7,7.6-27,18.3h54C367.9,375.8,357.5,368.2,345.2,368.2z"/>
	<path class="st3" d="M406.3,397.3c0-3.8-0.7-7.4-2.1-10.8h-54c-1.3,3.3-2.1,7-2.1,10.8c0,5.5,1.5,10.7,4.2,15h49.8
		C404.7,408,406.3,402.8,406.3,397.3z"/>
	<path class="st3" d="M320.3,412.3c5.1,8.4,14.3,14,24.9,14s19.8-5.6,24.9-14H320.3z"/>
	<path class="st2" d="M428.6,294.7c-17.2,0-32.3,10.8-40.5,27h81.1C460.9,305.5,445.8,294.7,428.6,294.7z"/>
	<path class="st2" d="M475.7,349.8c0-3.6-0.3-7.1-0.9-10.4h-92.5c-0.6,3.4-0.9,6.9-0.9,10.4c0,14.1,4.5,27,12,36.7h70.3
		C471.2,376.8,475.7,363.9,475.7,349.8z"/>
	<path class="st2" d="M390.6,339.4c-2.6,2.7-4.2,6.4-4.2,10.4c0,8.3,6.8,15.1,15.1,15.1c8.3,0,15.1-6.8,15.1-15.1
		c0-4-1.6-7.7-4.2-10.4H390.6z"/>
	<path class="st2" d="M444.7,339.4c-2.5,2.7-4.1,6.3-4.1,10.3c0,8.3,6.8,15.1,15.1,15.1c8.3,0,15.1-6.8,15.1-15.1
		c0-4-1.6-7.6-4.1-10.3H444.7z"/>
	<path class="st2" d="M443.8,376.8c0-8.3-6.8-15.1-15.1-15.1s-15.1,6.8-15.1,15.1c0,3.7,1.3,7.1,3.5,9.7h23.2
		C442.5,383.9,443.8,380.5,443.8,376.8z"/>
	<path class="st2" d="M428.6,307.5c-8,0-14.6,6.3-15.1,14.2h30.1C443.2,313.8,436.6,307.5,428.6,307.5z"/>
	<path class="st4" d="M631.2,516.8"/>
</g>
<g id="Layer_4">
	<g>
		<path class="st5" d="M670.7,389.3c-0.2,0-0.3,0-0.4,0.1c-0.1,0.6-0.2,1.2-0.4,1.9c-0.1,0.7-0.1,1.4,0.1,2.1l0.6-0.6v11.5
			c-2.4,1.7-4.8,3.2-7.1,4.4c-2.3,1.2-4.6,2.1-6.9,2.8c-2.3,0.7-4.6,1.2-6.9,1.5s-4.6,0.4-7,0.4c-1.6,0-3.3-0.1-5.3-0.3
			c-1.9-0.2-3.9-0.6-6-1.2c-2-0.6-4-1.4-6-2.5c-2-1.1-3.7-2.5-5.3-4.2c-0.1,0.1-0.2,0.3-0.2,0.4c0,0.1-0.1,0.2-0.2,0.3
			c-0.1-0.1-0.1-0.3-0.1-0.5c0-0.2,0-0.4-0.1-0.6c-0.2-0.2-0.3-0.4-0.4-0.7c-0.1,0.1-0.1,0.3-0.1,0.6c0-0.1,0-0.3,0-0.4
			c0-0.1,0-0.3-0.1-0.6c-0.1,0.1-0.1,0.3-0.1,0.5c0,0.2,0,0.4,0,0.6c0-0.2,0-0.5,0-0.7c0-0.2,0-0.5-0.1-0.7
			c-0.1,0.2-0.1,0.5-0.1,0.6c0,0.2,0,0.4,0,0.6v-0.1h-0.1c0,0-0.1,0-0.1,0c0,0-0.1,0-0.1,0c-0.2,0-0.3,0-0.2,0c0,0,0.1,0,0.1,0.1
			c0-0.4,0-0.9,0-1.3c0-0.4-0.1-0.8-0.3-1.2c-0.1-0.2-0.3-0.6-0.6-1.2s-0.6-1.1-0.9-1.8c-0.3-0.6-0.7-1.3-1-2
			c-0.3-0.7-0.5-1.3-0.6-1.9c0.1,0,0.2,0,0.3,0c0.1,0,0.3,0,0.4-0.1v-0.5c-0.1,0-0.2-0.1-0.4-0.1s-0.3,0-0.4,0c-0.1,0-0.2,0-0.3-0.1
			c-0.1-0.1-0.2-0.3-0.2-0.5h-4.2l-0.4-6c0-0.1,0-0.6,0.1-1.5c0-0.9,0.1-1.6,0.1-2.2c0-0.2,0-0.5,0-0.9c0-0.4,0-0.7,0-1.1
			c0-0.4,0.1-0.7,0.2-0.9c0.1-0.3,0.3-0.4,0.6-0.5v-10.5h5c0.1-0.1,0.2-0.2,0.2-0.3c0-0.1,0.1-0.2,0.2-0.3c-0.1-0.1-0.2-0.1-0.3-0.1
			c-0.1,0-0.3,0-0.4,0c0.1-0.2,0.1-0.5,0.1-0.7s0-0.4,0-0.7c0.2,0,0.5,0,0.7,0c0.2,0,0.4-0.1,0.6-0.3c0.1-0.1,0.3-0.4,0.6-0.7
			c0.2-0.3,0.5-0.7,0.8-1c0.3-0.4,0.6-0.8,0.9-1.3s0.5-0.9,0.7-1.3c0.1-0.1,0.1-0.5,0.1-1.2c0-0.6,0-1.2,0-1.7h1.8
			c0.1,0.1,0.1,0.2,0.1,0.4c0,0.2,0,0.3,0.1,0.4c1.6-1.5,3.4-2.7,5.2-3.6c1.8-0.9,3.7-1.6,5.6-2.1c1.9-0.5,3.7-0.8,5.6-0.9
			s3.7-0.2,5.5-0.2c2.2,0,4.5,0.1,7.1,0.4c2.6,0.2,5.1,0.9,7.6,1.9c2.5,1,4.7,2.6,6.8,4.8c2,2.2,3.5,5.1,4.5,8.9l-10.6,1.9
			c-0.2,0-0.4,0-0.7-0.3c-0.3-0.2-0.5-0.3-0.6-0.3h-5.7c-0.3-0.7-0.7-1.4-1.4-2c-0.6-0.6-1.3-1.1-2.1-1.5c-0.8-0.4-1.5-0.8-2.3-1
			c-0.8-0.2-1.4-0.4-1.9-0.4h-0.9v9.8c0,0.2,0,0.3,0.1,0.3c0.1,0,0.2,0,0.2,0.1c0.1,0.4,0.1,0.9,0.1,1.3c0,0.4,0,0.9,0,1.3l14.2,0.1
			c0.3,0.1,0.7,0.3,1.1,0.5c0.5,0.3,0.9,0.4,1.2,0.5c1,0.1,1.9,0.2,2.8,0.1c0.9,0,1.8,0,2.8,0h-5c-0.1,0.1-0.1,0.2,0,0.2
			c0.1,0,0.2,0,0.3,0l-4.6,2.1c0,0.2,0.2,0.3,0.4,0.4c0.2,0,0.5,0.1,0.8,0c0.3,0,0.6-0.1,0.9-0.1c0.3,0,0.5-0.1,0.7-0.1
			c0.8,0,1.7-0.1,2.7-0.1c1.1,0,2.1-0.1,3.1-0.1c1,0,1.8-0.1,2.6-0.1c0.7,0,1.1,0,1.2,0c0.1,0,0.3,0,0.5,0c0.2,0,0.4,0,0.5,0
			c0,0,0,0.1,0.1,0.3c0.1,0.1,0.2,0.2,0.4,0.2V389.3z M618.4,403.7v-1.1h-0.3v1.1H618.4z M618.7,404.4V403h-0.3v1.4H618.7z
			 M664,401.4c-6.2,0-12.5,0-18.7,0c-6.2,0-12.4,0-18.7-0.1c-0.1-0.1-0.2-0.2-0.3-0.3c-0.1-0.1-0.1-0.2-0.1-0.3h-4.1
			c-0.1-0.2-0.2-0.3-0.3-0.4c-0.1-0.1-0.2-0.2-0.2-0.4v-4.8h11.1c0.8,1.2,1.7,2.2,2.6,2.9c0.9,0.7,1.8,1.3,2.8,1.8
			c0.9,0.4,1.9,0.7,2.8,0.9c1,0.1,1.9,0.2,2.8,0.2c1.9,0,3.8-0.3,5.8-1c2-0.6,3.8-1.5,5.5-2.6v-1.2h-3.3l0.6-7.1h-8.6v-7.7
			c0-0.2,0-0.3-0.1-0.3c-0.1,0-0.2,0-0.3-0.1v-1.3c0-0.2,0-0.4,0-0.6c0-0.2,0-0.4,0-0.6c0.1-0.1,0.2-0.1,0.2-0.1c0,0,0.1,0,0.1-0.2
			v-10.9H642c-0.7,0-1.4,0.1-2.3,0.4c-0.8,0.3-1.7,0.6-2.5,1c-0.8,0.4-1.6,0.9-2.3,1.5c-0.7,0.6-1.3,1.2-1.7,1.9h-7.4
			c-0.1,0.1-0.2,0.2-0.3,0.3c-0.1,0.1-0.2,0.2-0.3,0.3c0.1,0.1,0.3,0.3,0.4,0.4c0.1,0.1,0.2,0.3,0.3,0.4c1.5,0,2.7,0,3.6,0
			c0.9,0,1.5,0,1.9,0c0.4,0,0.7,0,0.8,0c0.1,0,0.2,0,0.2,0.1c-0.8,1.5-1.3,3.2-1.5,4.9c-0.2,1.8-0.4,3.5-0.4,5.4c0,0.1,0,0.3,0,0.7
			c0,0.4,0,0.8,0.1,1.3c0,0.5,0,1,0.1,1.6c0,0.6,0,1,0,1.5l-0.1,0.1h-9.5v-3.4c0,0.6,0,1.1,0,1.7s0,1.1-0.1,1.6
			c0,0.1-0.1,0.3-0.2,0.3c-0.1,0.1-0.1,0.2-0.2,0.3c0,0.3-0.1,0.6-0.1,1c0,0.4,0,0.7,0.1,0.9c0.3,0.2,0.5,0.7,0.4,1.3
			c-0.1,0.6-0.1,1.2-0.1,1.5c0,0.1-0.1,0.1-0.2,0.1c-0.1,0-0.2,0-0.2,0c0,0.1-0.1,0.2-0.1,0.3s0,0.2-0.1,0.3c0.1,0,0.2,0,0.4,0
			s0.3,0,0.4,0.1c0,0.2,0,0.5-0.1,0.6c-0.1,0.2-0.1,0.4-0.1,0.5v4.6c0,0.2,0,0.3,0.1,0.4c0.1,0,0,0.1-0.1,0.2L664,401.4z
			 M632.4,394.6h-11.1v-2.8h10.2c0.1,0.4,0.2,0.9,0.4,1.4C632.1,393.7,632.3,394.2,632.4,394.6z M655.5,389.3h-2.9l-0.4,5.5h2.9v-5
			c0.1-0.1,0.2-0.2,0.2-0.3C655.3,389.5,655.4,389.4,655.5,389.3z M655.2,373.5c-0.3,0.1-0.6,0.2-1,0.3c-0.4,0.1-0.8,0.2-1.2,0.3
			c0-0.1,0-0.2,0-0.3c0-0.1,0-0.2-0.1-0.2H655.2z"/>
		<path class="st5" d="M676.8,399.6l-0.1,5.3h-0.2l0.1-5.3H676.8z M725.2,412.8h-44.7v-1.7c-0.3-0.1-0.7-0.1-1.1-0.1
			c-0.4,0-0.8,0-1.1,0c-0.2-0.2-0.4-0.6-0.8-1.1c-0.3-0.5-0.5-0.8-0.5-1v-9.6c0.4-0.4,0.7-0.8,1.1-1.2c0.3-0.4,0.7-0.9,1.1-1.4
			l-0.1-1.7c-0.1,0.1-0.3,0.3-0.6,0.6c-0.3,0.3-0.5,0.5-0.8,0.7v-0.6c0-0.2,0.2-0.5,0.6-0.8c0.4-0.3,0.7-0.6,1-0.9v-0.1
			c0,0,0-0.1-0.1-0.1c-0.1,0.2-0.4,0.5-0.6,0.7s-0.6,0.5-0.9,0.8c-0.1-0.5,0-0.9,0.3-1.2c0.3-0.3,0.7-0.6,1.1-1c0,0.1,0,0.2,0,0.2
			c0,0,0,0.1,0.1,0.2v-12.4v8.7c-0.1,0.2-0.3,0.5-0.6,0.7c-0.3,0.2-0.6,0.4-0.9,0.6v-0.6c0.2-0.2,0.5-0.4,0.7-0.7
			c0.2-0.3,0.4-0.6,0.6-0.9l-0.1-17.3l0.4,0.3h0.1c0,0,0.1,0,0.1-0.1c-0.1-0.2-0.3-0.3-0.4-0.4c-0.1-0.1-0.2-0.2-0.3-0.4
			c0.2,0.2,0.4,0.2,0.6,0.1l-0.6-0.6l0.4,0.3h0.1c0,0,0.1,0,0.1-0.1l-0.6-0.6l0.4,0.3h0.1c0,0,0.1,0,0.1-0.1l-0.6-0.6l0.4,0.3h0.1
			c0,0,0.1,0,0.1-0.1l-0.6-0.6v-2.7c0.3,0.2,0.5,0.4,0.6,0.6c0.1,0.2,0.1,0.5,0.1,0.8c0,0.3,0,0.5,0,0.8c0,0.3,0,0.5,0.2,0.7
			c0.1-0.2,0.1-0.4,0.1-0.6s0-0.4,0-0.6c0-0.4,0-0.7-0.1-0.8c0-0.1-0.1-0.2-0.2-0.3c-0.1-0.1-0.2-0.2-0.3-0.3
			c-0.1-0.1-0.3-0.4-0.5-0.8c-0.1-0.2-0.2-0.6-0.3-0.9c0-0.4,0-0.8,0-1.2c0-0.4,0-0.7,0.1-1c0-0.3,0-0.5,0-0.6c0-0.5,0-1,0.1-1.5
			c0.1-0.5,0.7-0.7,1.7-0.8c0.1-1.2,0.1-2.4,0-3.6H698v4h-6c-0.3,1.1-0.5,2.2-0.7,3.3c-0.2,1.1-0.4,2.3-0.6,3.5h-5.5v1.1H698v1.8
			c0.2,0.1,0.5,0.1,0.8,0.1c0.3,0,0.7,0,1.3-0.1v10.5l-0.1-6.8c-0.3-0.1-0.6-0.1-0.9-0.1c-0.3,0-0.6,0.1-0.9,0.1v20.5l1.5,0.1V388
			c0,1.9,0.1,3.7,0,5.4c0,1.8-0.2,3.5-0.4,5.4c0,0,0,0.1,0.1,0.1c0.1,0.1,0.2,0.1,0.3,0.1h25.6V412.8z M679,390.3
			c-0.2,0.2-0.6,0.6-1,1c-0.4,0.4-0.5,0.8-0.4,1.2c0.4-0.3,0.8-0.6,1.1-1C679,391.1,679.1,390.7,679,390.3z M679,391.6
			c-0.3,0.4-0.7,0.7-1,0.9c-0.3,0.2-0.5,0.6-0.4,1.3c0.3-0.3,0.7-0.6,1.1-1C679.1,392.3,679.2,392,679,391.6z M679.7,377
			c0,0.2,0,0.4-0.2,0.6c-0.2,0.2-0.3,0.4-0.5,0.5v-1.7c0.2,0.2,0.3,0.3,0.4,0.3c-0.1-0.7-0.1-1.3,0-2c0.1-0.7,0.2-1.4,0.2-2.2V377z
			 M695.4,411.5v-0.6h-10.3l-0.1,0.6H695.4z M701.9,405.4c-0.7,0-1.3,0-1.7,0c-0.4,0-0.6,0-0.7,0c-0.1,0-0.2,0.1-0.2,0.1
			c0,0.2,0,0.5,0,0.6c0,0.2,0,0.4-0.1,0.6h-1.5c-0.1-0.2-0.1-0.5-0.1-0.6c0-0.2,0-0.4,0-0.5c-0.1,0-0.2,0-0.4-0.1
			c-0.1,0-0.2-0.1-0.2-0.2h-10.2c-0.1-0.4-0.3-0.8-0.4-1.2c-0.1-0.4-0.2-0.8-0.3-1.2h-0.6v0.7c0,0.2,0,0.4,0.1,0.5
			c0.1,0.1,0.2,0.3,0.2,0.4c0,0.5,0.1,1,0.1,1.5s0,1,0,1.5h10.5c0.1,0.5,0.2,1.1,0.3,1.6c0.1,0.5,0.2,1,0.3,1.4h6.8
			c0.3-1.9,0.7-3.7,1.3-5.4C703.6,405.4,702.6,405.4,701.9,405.4z M700,387.5h-0.2v-6.6h0.2V387.5z"/>
		<path class="st5" d="M751.1,388.1l-0.7,7.1h-4.6c0,0,0.1,0.1,0.2,0.1c0.1,0,0.3,0,0.7,0s0.9,0,1.5-0.1c0.7,0,1.6,0,2.9,0v17.1
			h-17.5v-7.1c-0.4,0.4-0.9,0.8-1.3,1.3c-0.4,0.5-0.9,0.9-1.3,1.3c0-0.5-0.1-1.1-0.2-1.7c-0.1-0.6-0.1-1.1,0.2-1.5
			c0.2-0.5,0.6-1,1.1-1.4c0.5-0.4,1-0.9,1.5-1.4l-0.1-1.5l-2.6,2.7c0-0.5-0.1-1.1-0.2-1.7c-0.1-0.6-0.1-1.1,0.2-1.5
			c0.3-0.6,0.7-1.2,1.2-1.6c0.5-0.4,1-0.9,1.4-1.4l-0.1-1.4l-2.6,2.7c0-0.5,0-1.1-0.1-1.7c-0.1-0.6,0-1.1,0.1-1.5
			c0.2-0.6,0.6-1.2,1.2-1.6c0.6-0.4,1-0.9,1.5-1.4l-0.1-1.4L731,393c0-0.5,0-1.1-0.1-1.7c-0.1-0.6,0-1.1,0.1-1.5
			c0.2-0.6,0.6-1.2,1.2-1.6c0.6-0.4,1-0.9,1.5-1.4l-0.1-1.4l-2.6,2.7c0-0.5-0.1-1.1-0.2-1.7c-0.1-0.6-0.1-1.2,0.2-1.7
			c0.2-0.6,0.6-1.1,1.2-1.5c0.6-0.4,1-0.9,1.5-1.4l-0.1-1.4c-0.4,0.4-0.8,0.8-1.3,1.3c-0.5,0.5-0.9,0.9-1.3,1.5
			c0-0.5-0.1-1.1-0.2-1.7c-0.1-0.6-0.1-1.2,0.2-1.7c0.2-0.6,0.6-1.1,1.1-1.5c0.5-0.4,1-0.9,1.5-1.4l-0.1-1.4
			c-0.4,0.4-0.8,0.8-1.3,1.3c-0.5,0.5-0.9,0.9-1.3,1.5c0-0.5-0.1-1.1-0.2-1.7c-0.1-0.6-0.1-1.2,0.2-1.7c0.1-0.2,0.5-0.6,1.1-1.2
			c0.6-0.6,1.2-1.1,1.6-1.7c0.1-0.1,0.1-0.3,0.1-0.5c0-0.2,0-0.5,0-0.7c0.5,0.1,1,0,1.3-0.4c0.4-0.4,0.8-0.8,1.3-1.3l-0.1-1.5
			l-5.3,5.6c0-0.5-0.1-1.1-0.2-1.7c-0.1-0.6-0.1-1.1,0.2-1.5c0.3-0.6,0.7-1.2,1.3-1.7c0.6-0.5,1.1-1,1.7-1.5
			c-0.1-0.1-0.2-0.3-0.2-0.5c0-0.2-0.1-0.5-0.2-0.8l-2.6,2.7c0-0.5,0-1.1,0-1.7c0-0.6,0-1.1,0-1.6c0.6-0.6,1-1.1,1.3-1.4
			c0.3-0.4,0.6-0.8,0.9-1.1c0.3-0.4,0.4-0.6,0.4-0.8v-6.1h17.4v10.9h-0.7c-0.1,0.3-0.2,0.7-0.1,1.2c0.1,0.5,0.2,0.9,0.3,1.4
			c0.1,0.4,0.3,1,0.5,1.7v1.4h-14.5l-0.8,0.8h15.3V388.1z M740.6,370.8c-0.1-0.8-0.3-1.6-0.3-2.3c-0.1-0.7-0.2-1.3-0.3-1.9h-1.4
			l0.7,4.2H740.6z M742.3,370.8l-0.7-4.2h-1.3c0.1,0.9,0.3,1.6,0.3,2.3c0.1,0.7,0.2,1.3,0.3,1.9H742.3z M743.9,370.8
			c-0.1-1.1-0.3-1.9-0.3-2.4c-0.1-0.6-0.2-1.2-0.3-1.7h-1.4l0.7,4.2H743.9z M745.6,370.8l-0.7-4.2h-1.3c0.1,0.9,0.3,1.6,0.3,2.3
			c0.1,0.7,0.2,1.3,0.3,1.9H745.6z M747.2,370.8l-0.6-4.2h-1.4l0.7,4.2H747.2z M748.9,370.8l-0.7-4.2h-1.3c0.1,0.7,0.2,1.4,0.3,2.1
			c0.1,0.7,0.2,1.4,0.3,2.1H748.9z M750.5,370.8c-0.1-1.1-0.3-1.9-0.3-2.4c-0.1-0.6-0.2-1.2-0.3-1.7h-1.4l0.7,4.2H750.5z"/>
		<path class="st5" d="M810.6,370.6h-6c0.1,0.3,0.3,0.4,0.6,0.3c0.3-0.1,0.5-0.1,0.7-0.1c-0.3,0.2-0.8,0.6-1.4,1
			c-0.6,0.4-1.1,0.6-1.3,0.6c0,0-0.2-0.1-0.5-0.3c-0.3-0.2-0.7-0.2-1.3,0.1l-0.2,0.1V367c-0.5-0.4-1.1-0.8-1.8-1.3
			c-0.6-0.5-1.1-0.7-1.3-0.7H781c-0.2,0.1-0.3,0.2-0.4,0.4c0,0.2-0.1,0.3-0.2,0.5h-4.3c-0.2,0-0.4-0.1-0.6-0.3
			c-0.2-0.2-0.4-0.5-0.5-0.7h-17.6v-8.6h10.3c0,0-0.1-0.1-0.3-0.2c-0.1-0.1-0.3-0.2-0.4-0.4H798c0.2,0,0.4,0.1,0.8,0.4
			c0.3,0.2,0.6,0.4,0.8,0.4h11.1V367l-5.8,0.1l-0.1,0.9h5.9V370.6z M800.3,372H793c-0.1,0.1-0.2,0.3-0.3,0.5
			c-0.1,0.2-0.2,0.4-0.3,0.6h-6.6c-0.2,0-0.4,0.1-0.7,0.3c-0.3,0.2-0.6,0.3-0.9,0.5h7.6v8.1h-16.4v-6.3h-10.4c0.3-0.3,0.7-0.6,1.2-1
			c0.5-0.4,0.9-0.7,1.3-1c0.4-0.3,0.8-0.6,1.2-0.8c0.3-0.2,0.6-0.4,0.6-0.4h4.2c0.1,0,0.4,0,0.7-0.1c0.3-0.1,0.6-0.2,0.9-0.4h-11
			c0-0.3,0-0.5-0.1-0.6v0.1c0,0.1-0.1,0.1-0.2,0.1c-0.2,0-0.2,0-0.1-0.1c0.1,0,0.1-0.1,0-0.2l-0.3,0.2c0-0.1,0-0.3-0.1-0.5
			c-0.1-0.2-0.1-0.4-0.1-0.5c0,0-0.1-0.1-0.2-0.1c-0.1,0-0.2,0-0.5,0c-0.3,0-0.6,0-1.2,0s-1.2,0-2.1,0c0.2-0.1,0.4-0.4,0.7-0.6
			c0.3-0.3,0.6-0.5,0.9-0.8s0.6-0.5,0.9-0.7c0.3-0.2,0.6-0.3,0.9-0.2c0.1-0.1,0.1-0.1,0.1-0.1c0,0,0,0,0-0.2c0-0.5-0.1-0.7-0.2-0.7
			s-0.4,0-0.6,0s-0.7,0.1-1.1,0.4c-0.5,0.3-0.9,0.6-1.3,0.9c-0.4,0.3-0.8,0.7-1.2,1c-0.4,0.3-0.6,0.6-0.8,0.6v-4.5h15.8
			c0.2,0,0.5,0.2,0.9,0.6c0.4,0.4,0.7,0.6,0.9,0.6l6.6,0.1c0.1-0.2,0.3-0.3,0.4-0.5c0.1-0.2,0.3-0.4,0.6-0.7h9.1
			c0.2,0,0.4,0.1,0.5,0.3c0.2,0.2,0.3,0.3,0.5,0.3h5.3c0.2,0,0.5,0.2,1,0.5c0.5,0.4,0.9,0.7,1.3,0.9V372z M768.1,368.1
			c-0.2-0.2-0.5-0.4-0.6-0.6c-0.2-0.3-0.4-0.4-0.6-0.4l-3.3,0.1c0,0.1,0,0.3,0.1,0.5c0,0.2,0.1,0.3,0.1,0.4H768.1z M774.3,371.1
			v-0.6h-10.2v0.3c0,0.2,0,0.4,0.1,0.4H774.3z M770.5,355.4c-0.2,0-0.5-0.1-0.8-0.2s-0.6-0.3-0.8-0.4h0.8c0.2,0,0.3,0.1,0.4,0.2
			C770.3,355.1,770.4,355.3,770.5,355.4z M772.1,355.4c-0.1,0-0.4,0-0.7-0.1c-0.3-0.1-0.7-0.3-1-0.6h0.8c0.1,0,0.3,0.1,0.5,0.3
			C771.8,355.2,772,355.3,772.1,355.4z M773.5,355.4c-0.1,0-0.4,0-0.7-0.1c-0.3-0.1-0.7-0.3-1-0.6h1c0.1,0.1,0.2,0.2,0.3,0.3
			C773.3,355.2,773.4,355.3,773.5,355.4z M775,355.4c-0.1,0-0.4,0-0.7-0.2c-0.3-0.2-0.7-0.3-1-0.5h1c0.1,0.1,0.2,0.2,0.3,0.3
			C774.7,355.2,774.8,355.3,775,355.4z M775.3,371.1v-0.2l-0.6,0.1v0.2L775.3,371.1z M776.4,355.4c-0.1,0-0.4,0-0.7-0.2
			c-0.3-0.2-0.7-0.3-1-0.5h1c0.1,0.1,0.2,0.2,0.3,0.3C776.1,355.2,776.3,355.3,776.4,355.4z M792.7,413h-17.4v-7h2
			c0-0.1-0.1-0.2-0.1-0.3c0,0,0-0.2,0-0.5s0-0.9,0-1.8c0-0.9,0-2.2,0.1-4c0.1-0.1,0.2-0.1,0.3-0.1c0.1,0,0.2,0,0.3-0.1
			c0-0.2,0-0.6,0-1c0-0.4,0.1-0.9,0.1-1.3c0-0.4,0.1-0.8,0.1-1.2c0-0.4,0-0.6,0-0.7c0-0.1,0-0.3,0-0.6c0-0.3-0.1-0.6-0.1-1
			c0-0.4-0.1-0.7-0.1-1.1c0-0.4,0-0.7,0-1c-0.4-0.2-0.8-0.3-1.2-0.3c-0.4,0-0.8,0-1.4,0v-8.6h16.3v13.9c0,0.2,0.1,0.4,0.3,0.6
			c0.2,0.2,0.4,0.5,0.7,0.7V413z M777.9,355.4c-0.1,0-0.4,0-0.7-0.2c-0.3-0.2-0.7-0.3-1-0.5h1c0.1,0.1,0.2,0.2,0.3,0.3
			C777.6,355.2,777.7,355.3,777.9,355.4z M779.3,355.4c-0.1,0-0.4,0-0.7-0.2c-0.3-0.2-0.7-0.3-1-0.5h1c0.1,0.1,0.2,0.2,0.3,0.3
			C779,355.2,779.2,355.3,779.3,355.4z M780.7,355.4c-0.3,0.1-0.6,0.1-0.8-0.1c-0.3-0.2-0.6-0.3-0.9-0.5h1c0.1,0.1,0.2,0.2,0.3,0.3
			C780.5,355.2,780.6,355.3,780.7,355.4z M782.2,355.4c-0.1,0-0.4-0.1-0.8-0.2c-0.4-0.1-0.6-0.3-0.8-0.5h0.9
			c0.1,0.1,0.2,0.2,0.3,0.3C781.9,355.2,782,355.3,782.2,355.4z M783.6,355.4c-0.1,0-0.4-0.1-0.8-0.2c-0.4-0.1-0.6-0.3-0.8-0.5h0.9
			c0.1,0.1,0.2,0.2,0.3,0.3C783.3,355.2,783.5,355.3,783.6,355.4z M785.1,355.4c-0.1,0-0.4-0.1-0.8-0.2c-0.4-0.1-0.6-0.3-0.8-0.5
			h0.8c0.2,0,0.3,0.1,0.4,0.2C784.8,355.1,784.9,355.3,785.1,355.4z M785.8,368c-0.3-0.2-0.6-0.3-0.9-0.5c-0.3-0.2-0.6-0.3-0.8-0.3
			l-0.5,0.1c0.4,0.2,0.8,0.4,1.2,0.5C785.2,367.9,785.5,368,785.8,368z M786.5,355.4c-0.1,0-0.4-0.1-0.8-0.2
			c-0.4-0.1-0.6-0.3-0.8-0.5h0.9c0.1,0.1,0.2,0.2,0.3,0.3C786.2,355.2,786.4,355.3,786.5,355.4z M787.7,367.5v-0.2h-0.4v0.3
			L787.7,367.5z M792.4,367.1l-1.6,0.1c0.2,0.1,0.4,0.2,0.5,0.4c0.2,0.1,0.3,0.2,0.5,0.2c0.2,0,0.3-0.1,0.4-0.2
			C792.2,367.3,792.3,367.2,792.4,367.1z M797.2,370.8v-0.2h-0.5v0.2H797.2z M797.6,368v-0.9l-0.5,0.1v0.8H797.6z M801,366.3v-1.2
			h-2c0.3,0.1,0.6,0.4,1,0.6C800.5,366,800.8,366.2,801,366.3z"/>
		<path class="st5" d="M868.8,394.7H862v0.9h6.6c-1.2,3.7-2.8,6.7-4.6,8.9c-1.8,2.3-3.9,4-6.1,5.2c-2.2,1.2-4.6,2.1-7.1,2.5
			c-2.5,0.4-4.9,0.6-7.4,0.6c-2.2,0-3.9-0.1-5.2-0.3c-1.3-0.2-2.5-0.3-3.6-0.5c-0.3,0-0.6-0.1-1-0.3c-0.4-0.1-0.8-0.3-1.3-0.4
			c-0.4-0.1-0.8-0.3-1.2-0.4c-0.3-0.1-0.6-0.1-0.6-0.1h-6.3c0-0.1,0-0.3-0.1-0.5c0-0.2-0.1-0.3-0.1-0.4l3.9-0.1
			c-1.2-0.6-2.5-1.4-3.8-2.4s-2.5-2.3-3.6-3.7c-0.1,0.2-0.1,0.5-0.1,0.8c0,0.3,0,0.6,0,0.8c0,0.2,0,0.4,0,0.7c0,0.3,0,0.6,0,0.8
			c0.1,0.5,0.2,1.1,0.4,1.6c0.2,0.5,0.4,1,0.6,1.5c0.2,0.1,0.4,0.1,0.6,0.1s0.5-0.1,0.7-0.1c0.2,0,0.4,0.1,0.6,0.2
			c0.2,0.1,0.3,0.5,0.4,0.9h-2.7c-0.1-0.5-0.2-1-0.4-1.6c-0.2-0.6-0.4-1.2-0.5-1.8c-0.2-0.6-0.3-1.3-0.5-1.9s-0.2-1.3-0.1-1.9h-7.1
			c0.2-0.3,0.5-0.6,0.9-0.9c0.4-0.3,0.7-0.7,1.1-1.1c-0.2-0.5-0.5-1.1-0.8-1.8c-0.3-0.7-0.4-1.1-0.4-1.3v-5.3
			c-0.1-0.1-0.3-0.3-0.4-0.4c-0.1-0.1-0.3-0.3-0.4-0.4h0.9v-16.1c-0.6-0.6-1.2-1.2-1.6-1.8c0.1-0.1,0.3-0.1,0.5,0
			c0.3,0.1,0.5,0.1,0.7,0.1h0.8c0-0.1,0.1-0.4,0.1-0.6c0-0.3,0.1-0.6,0.2-0.8c0.1-0.2,0.2-0.4,0.4-0.6c0.2-0.1,0.5-0.1,0.9,0
			c1.2-3.8,2.7-6.9,4.7-9.3c2-2.4,4.2-4.3,6.7-5.6c2.5-1.3,5.1-2.3,7.8-2.8c2.7-0.5,5.4-0.8,8-0.8c2.5,0,5,0.2,7.6,0.6
			c2.6,0.4,5,1.3,7.3,2.6c2.3,1.3,4.4,3,6.3,5.3c1.9,2.3,3.4,5.3,4.6,9l-15.4,3.5c-0.1-0.9-0.5-1.8-1.1-2.7
			c-0.6-0.9-1.3-1.8-2.1-2.5c-0.8-0.8-1.7-1.4-2.6-1.9c-0.9-0.5-1.8-0.7-2.6-0.8l-2.7,0.1c0.1,0.4,0.3,0.5,0.6,0.4
			c0.3-0.1,0.5-0.1,0.6,0c0.1,0.2,0.2,0.5,0.4,0.8c0.2,0.3,0.3,0.5,0.3,0.7v25.4c0,0.1,0,0.3-0.1,0.3c-0.1,0.1-0.1,0.2-0.1,0.3
			c0.4,0.1,0.9,0.1,1.4,0c0.5-0.1,0.9,0,1.3,0.1c0.5,0.2,0.8,0.4,0.9,0.6c0.1,0.1,0.3,0.3,0.4,0.3c0.1,0.1,0.2,0.1,0.4,0.1
			c0.2,0,0.6,0,1.1,0c0.1,0,0.3,0,0.5,0.1c0.2,0,0.4,0,0.5-0.1c1.1-1.1,1.9-2.3,2.4-3.7c0.5-1.4,0.9-2.7,1.2-4.1h0.7
			c0.1,0,0.4,0.1,0.8,0.2c0.4,0.1,0.9,0.3,1.5,0.4c0.6,0.2,1.1,0.3,1.7,0.5c0.6,0.2,1.1,0.4,1.4,0.5c0.1,0.1,0.3,0.2,0.4,0.4
			c0.1,0.2,0.3,0.4,0.4,0.5c0.7,0,1.5,0,2.2,0.1c0.7,0.1,1.5,0.3,2.2,0.5c0.7,0.2,1.4,0.5,2.1,0.7c0.7,0.3,1.3,0.5,1.9,0.6
			C868.9,393.8,868.8,394.2,868.8,394.7z M819.6,378.9h-5.3v-0.6c-0.1,0.2-0.2,0.5-0.3,0.7c-0.1,0.2-0.1,0.4-0.1,0.5l-0.1,11.2
			c0.2,0.1,0.4,0.3,0.5,0.3c0.1,0.1,0.3,0.2,0.4,0.3c0-0.1,0-0.2-0.1-0.3c-0.1-0.1-0.2-0.2-0.3-0.3c0.1-0.1,0.2-0.1,0.2-0.1
			c0,0,0.1,0,0.1-0.1c-0.1-0.5-0.2-1-0.3-1.5c-0.1-0.5-0.1-0.9-0.2-1.3c0-0.4-0.1-0.8,0-1.1c0-0.4,0-0.7,0-1c0-0.2-0.1-0.5-0.1-0.9
			c0-0.4,0-0.7,0.3-0.9h5.2v-1h-5.4v-1c0-1.2,0-1.9,0.1-2.3c0.1-0.4,0.3-0.5,0.7-0.5c0.4,0,0.9,0.1,1.7,0.2
			C817.4,379.1,818.4,379.1,819.6,378.9z M814.9,392.5V392c-0.1-0.1-0.3-0.2-0.5-0.3c-0.2-0.1-0.4-0.2-0.6-0.3v1.1H814.9z
			 M818,400.1c-0.3-0.6-0.6-1.2-0.9-1.8c-0.3-0.6-0.6-1.2-0.8-1.8c0-0.1-0.1-0.3-0.1-0.5c0-0.2-0.1-0.4-0.2-0.5
			c-0.3-0.3-0.7-0.7-1-1c-0.4-0.3-0.7-0.6-1-0.8v3c0,0.7,0.1,1.5,0.3,2.5c0.2,0.9,0.4,1.6,0.5,2.1c0.3-0.1,0.5-0.3,0.7-0.5
			c0.2-0.2,0.4-0.3,0.6-0.5c0.2-0.2,0.4-0.3,0.8-0.4C817.1,400,817.5,400.1,818,400.1z M819.6,377v-0.6h-0.9L818,377H819.6z
			 M819.6,388.9v-1.2c0,0.1,0,0.3-0.1,0.5c-0.1,0.2-0.1,0.4-0.1,0.5L819.6,388.9z M831.8,389v-2.2l-0.1-6.5v2.4h-11.7v0.8
			c0.1,0.1,0.3,0.2,0.4,0.2c0.1,0,0.2,0.1,0.2,0.3c0,0.2-0.1,0.5-0.3,1c-0.2,0.5-0.3,0.8-0.3,1v3H831.8z M831.9,376.8v-0.6h-11.4
			v0.8h10.4c0-0.2,0-0.4,0.1-0.5c0-0.1,0.2-0.1,0.4-0.1c0.2,0,0.3,0,0.3,0C831.8,376.4,831.8,376.6,831.9,376.8z M821.4,379.1v-0.2
			h-0.9v0.2H821.4z M823.9,384.8c-0.1,0.4-0.2,0.9-0.4,1.4s-0.3,1-0.4,1.4h-0.8c0.1-0.5,0.3-1,0.4-1.4c0.1-0.5,0.2-0.9,0.4-1.4
			H823.9z M825.5,384.8c-0.1,0.4-0.3,0.9-0.4,1.4c-0.1,0.5-0.3,1-0.4,1.4h-0.9c0.1-0.4,0.3-0.9,0.4-1.4c0.1-0.5,0.3-1,0.4-1.4H825.5
			z M827.1,385c-0.1,0.4-0.3,0.9-0.4,1.3c-0.1,0.5-0.3,0.9-0.4,1.3h-0.9c0.1-0.4,0.3-0.9,0.4-1.4c0.1-0.5,0.3-1,0.4-1.4L827.1,385z
			 M831.8,379.6v-0.2h-5v0.2H831.8z M828.6,385.5c0,0.1-0.1,0.4-0.3,0.9c-0.2,0.5-0.4,0.9-0.5,1.3H827c0.1-0.4,0.3-0.9,0.4-1.4
			c0.1-0.5,0.3-1,0.4-1.4h0.7V385.5z M831.8,379.1v-0.2h-4.4v0.2H831.8z M829.8,385c0.1,0.4,0.1,0.8,0,1.2c-0.1,0.4-0.2,0.9-0.2,1.4
			h-1.1c0-0.4,0.2-0.9,0.3-1.4c0.2-0.6,0.3-1.1,0.5-1.4L829.8,385z M831.4,385.6c0,0.2-0.1,0.5-0.2,0.9c-0.1,0.4-0.2,0.8-0.3,1.1
			H830c0.1-0.3,0.3-0.7,0.4-1.2c0.1-0.5,0.2-0.8,0.4-0.8c0.2,0,0.3,0,0.3,0.1c0,0.1,0,0.1,0.1,0.1c0.1-0.1,0.1-0.3,0.1-0.5
			s0-0.4,0-0.5C831.4,385,831.4,385.3,831.4,385.6z M843.7,388.2v-16.6c-0.5,0.2-0.9,0.2-1.2,0c-0.3-0.2-0.4-0.6-0.5-1
			c-0.1-0.5-0.2-0.9-0.3-1.4c-0.1-0.5-0.2-0.9-0.4-1.2h-1.6c-0.5,0-1.1,0.2-1.8,0.7c-0.7,0.5-1.4,1-2.1,1.6
			c-0.7,0.6-1.3,1.3-1.8,1.9c-0.5,0.7-0.8,1.2-0.9,1.7h6.3c0.2,0,0.4,0.1,0.5,0.3s0.3,0.3,0.4,0.4c-0.2,0.3-0.6,0.6-1,0.6
			c-0.4,0.1-0.7,0.1-0.9,0c-0.1,0.2-0.2,0.4-0.3,0.6c-0.1,0.2-0.2,0.4-0.4,0.4h-5.6v14.1c0,0.2,0.1,0.7,0.4,1.6
			c0.3,0.9,0.5,1.6,0.8,2.2c0.1,0,0.2,0,0.3-0.1c0.1,0,0.2-0.1,0.4-0.1c0.3,0,0.6,0.1,1,0.3c-0.2-0.2-0.1-0.3,0.3-0.3
			c0.2,0,0.5,0.1,1,0.4c0.5,0.2,0.9,0.5,1.2,0.7c-0.8,0.1-1.5,0.1-1.9,0.1c-0.5,0-0.8,0-1,0c-0.4,0-0.6,0-0.6,0.1
			c0.6,0.1,1.3,0.2,2.2,0.2c0.8,0,1.3,0.1,1.5,0.1h5.8v-7c0-0.2,0-0.3,0.1-0.2C843.6,388.4,843.7,388.4,843.7,388.2z M843.5,374.7
			c-0.1-0.4-0.3-0.9-0.5-1.4s-0.4-1-0.5-1.4h1.1V374.7z"/>
		<path class="st5" d="M934.2,395.7c-0.4,1.3-0.8,2.6-1.1,4h-2.9c-0.1,0.4-0.2,0.8-0.1,1.3h-7.5c0-0.1,0-0.2,0-0.3
			c0-0.1-0.1-0.3-0.3-0.4H917v-0.6h5.2h0.1v-0.1c0,0,0.1-0.1,0.1-0.1c0-0.8-0.4-1.2-1.2-1.2h-4c0-0.1,0-0.3,0-0.5
			c0-0.2,0-0.3-0.1-0.4c-0.3,0.3-0.4,0.7-0.3,1.2c0.1,0.5,0,0.9-0.1,1.3v-2.4c-0.1,0.4-0.2,0.8-0.2,1.2c0,0.4-0.1,0.8-0.2,1.2
			c0.1-0.7,0.2-1.4,0.2-2.2s-0.1-1.3-0.3-1.9h-8.6c0.1-0.6,0.2-1.2,0.2-1.8c0-0.6,0.1-1.3,0.2-1.8h4.6v-1.9h-7.9l1-3.2h5.5
			c0.1-0.1,0.3-0.3,0.5-0.5c0.2-0.2,0.4-0.3,0.5-0.3c0.1,0,0.2,0,0.4,0c0.2,0,0.3,0,0.4-0.1c0.4-0.3,0.8-0.6,1.2-1
			c0.4-0.4,0.8-0.9,1.3-1.3h-8.6c0.1-0.2,0.2-0.5,0.3-0.8s0.2-0.6,0.3-0.9h-24.5l-0.1,0.1v0.8c0.1,0.1,0.2,0.2,0.2,0.2
			c0,0,0.1,0,0.3,0l22.9-0.1c0,0.1,0,0.2-0.1,0.3c-0.1,0.1-0.2,0.2-0.4,0.2l-23,0.1c0,0.2,0.1,0.3,0.4,0.3l22.8-0.1
			c-0.2,0.7-0.4,1.3-0.6,1.8l-22.5,0.3H897c0.1,0,0.2,0,0.3,0.1c0.1,0.1,0.3,0.1,0.4,0.1h4.9c0.3,0.5,0.7,0.7,1.2,0.6
			c0.5-0.1,0.9-0.1,1.2,0c-0.1,0.4-0.2,0.8-0.4,1.1c-0.1,0.4-0.3,0.7-0.4,1.1h-21.4c-0.1,0.1-0.1,0.2,0,0.3c0.1,0.1,0.2,0.1,0.3,0.1
			c-0.1,0.1-0.3,0.2-0.5,0.3c-0.2,0.1-0.4,0.2-0.6,0.3c0,0,0.1,0.1,0.2,0.1c0.1,0,0.3,0,0.7,0s0.9,0,1.6,0c0.7,0,1.7,0,3,0
			c0.1,0.1,0.2,0.3,0.2,0.5c0,0.2,0.1,0.4,0.2,0.6h5.5v21.5H876v-5.3l-2.6-1.4c0.3-0.1,0.6-0.3,0.9-0.4c0.3-0.1,0.7-0.3,1.1-0.6
			c-0.3-0.2-0.6-0.4-0.9-0.6c-0.3-0.1-0.7-0.3-1.1-0.6l2-1c-0.3-0.2-0.6-0.4-0.9-0.6c-0.3-0.1-0.7-0.3-1.1-0.6
			c0.3-0.1,0.6-0.3,0.9-0.4c0.3-0.1,0.7-0.3,1.2-0.6c-0.4-0.2-0.7-0.5-1.1-0.6c-0.3-0.2-0.6-0.4-0.9-0.5c0.4-0.2,0.9-0.4,1.3-0.6
			c0.5-0.2,0.9-0.4,1.3-0.7v-8.1h4.7c0.2,0,0.4-0.1,0.7-0.3c0.3-0.2,0.5-0.4,0.8-0.5c-0.1-0.1-0.1-0.2-0.1-0.2c0,0-0.1,0-0.3,0H876
			v-3.4h5.9c0,0-0.1-0.1-0.2-0.1c-0.1,0-0.3,0-0.7,0c-0.4,0-1,0-1.8,0c-0.8,0-1.9,0.1-3.2,0.1v-1.4l0.4-0.6c1.3,0,2.2,0,3,0
			c0.7,0,1.3,0,1.6,0c0.4,0,0.6,0,0.7,0c0.1,0,0.2-0.1,0.2-0.2l-0.1-0.1c-0.8-0.1-1.8-0.1-2.9-0.1c-1.1,0-2.1,0-2.9,0.1v-0.6h5.9
			v-1.1H876v-25.6h17.5v19.6h19v-2.2h17.6v21.8H934.2z M891.6,392.7c0-0.1,0-0.3,0-0.5c0-0.2,0-0.3,0-0.5h-0.7
			c0.1,0.2,0.3,0.4,0.4,0.5C891.3,392.4,891.4,392.6,891.6,392.7z M892.3,392.7c0-0.2,0-0.4,0-0.6c0-0.1,0-0.3,0-0.4h-0.6
			c0,0.1,0.1,0.3,0.2,0.5C892.1,392.4,892.2,392.6,892.3,392.7z M893.1,391.7h-0.6c0,0.1,0.1,0.3,0.2,0.5c0.1,0.2,0.2,0.3,0.3,0.4
			c0.1-0.1,0.1-0.3,0.1-0.5C893.1,392,893.1,391.9,893.1,391.7z M901.1,386.8v-0.2l-0.6-0.1v0.2L901.1,386.8z M901.8,386.6l-0.6-0.1
			v0.2l0.5,0.1L901.8,386.6z M914.6,383.9l-1.8,1.8h-6.7c0.1-0.3,0.2-0.6,0.3-0.9c0.1-0.3,0.2-0.6,0.3-0.9H914.6z M908.6,392.8
			c-0.1,0.3-0.2,0.6-0.2,1c0,0.4-0.1,0.7-0.1,0.9c0.1-0.2,0.2-0.5,0.2-0.9S908.6,393.1,908.6,392.8z M909,392.9h-0.3l-0.1,1.9h0.2
			L909,392.9z M909.4,392.9h-0.2l-0.3,1.9h0.2L909.4,392.9z M910.3,392.8c-0.1,0.1-0.1,0.3-0.1,0.6s0,0.5-0.1,0.7
			c-0.1-0.2-0.1-0.4-0.1-0.6c0-0.1,0-0.3,0-0.6c0,0.3,0,0.5-0.1,0.6c-0.1-0.1-0.1-0.3-0.1-0.4s0-0.2,0-0.3c-0.1,0.2-0.1,0.6-0.1,0.9
			c0,0.4,0,0.7,0,1c0-0.5,0-0.9,0.1-1.1c0.1,0.2,0.1,0.4,0.1,0.6c0,0.1,0,0.3,0,0.4c0-0.2,0-0.3,0.1-0.4c0.1,0.1,0.1,0.2,0.1,0.3
			c0,0.1,0,0.2,0,0.3c0.1-0.3,0.1-0.6,0.1-1C910.2,393.5,910.2,393.1,910.3,392.8z M910.8,392.9h-0.3l-0.1,1.9h0.2L910.8,392.9z
			 M911.4,392.8c-0.1,0.2-0.1,0.5-0.1,0.7c0,0.2,0,0.5-0.1,0.7c-0.1-0.2-0.1-0.5-0.1-0.7c0-0.2,0-0.5,0-0.7c0,0.3,0,0.7-0.1,1
			c0,0.4-0.1,0.7-0.1,0.9c0-0.1,0-0.3,0.1-0.4c0.1,0.1,0.1,0.2,0.1,0.4c0-0.2,0.1-0.6,0.1-1S911.3,393,911.4,392.8z M911.8,392.9
			h-0.3l-0.1,1.9h0.2L911.8,392.9z M912.4,392.8c-0.1,0.2-0.1,0.5-0.1,0.7c0,0.2,0,0.5-0.1,0.7c-0.1-0.2-0.1-0.5-0.1-0.7
			s0-0.4,0-0.7c0,0.3,0,0.6-0.1,1c0,0.4-0.1,0.7-0.1,0.9c0-0.1,0-0.3,0.1-0.4c0.1,0.1,0.1,0.2,0.1,0.4c0-0.2,0.1-0.6,0.1-1
			C912.2,393.4,912.3,393,912.4,392.8z M912.6,394.8h-0.3v-1.4h0.3V394.8z M912.8,398h-0.3v-1.1h0.3V398z M930.1,367.3h-5.3v4.2h5.3
			v1.4h-17.6v-1.4h0.9v-4.1c-0.1-0.1-0.2-0.1-0.4-0.1c-0.2,0-0.3,0-0.5,0v-10.8h17.6V367.3z M930.1,412.8h-17.6v-11.6h7.7
			c0.1,0.4,0.2,0.9,0.3,1.3c0.1,0.4,0.2,0.9,0.3,1.3h9.3v3.5h-9.1v0.8h9.1V412.8z M913.2,396.9l-0.4,3h-0.2l0.3-3H913.2z
			 M913.5,396.9l-0.2,3h-0.2l0.1-3H913.5z M913.8,396.8c0,0.4,0,0.9-0.1,1.4c0,0.5-0.1,1-0.1,1.5c0-0.4,0-0.9,0-1.4
			S913.7,397.4,913.8,396.8z M914.4,396.9l-0.4,3h-0.2l0.3-3H914.4z M914.7,396.8c-0.1,0.4-0.2,0.9-0.2,1.5c0,0.6-0.1,1.1-0.1,1.5
			c0-0.5,0-1.1,0.1-1.6C914.5,397.7,914.6,397.3,914.7,396.8z M915.1,396.9l-0.2,3h-0.2l0.1-3H915.1z M916.9,371.5v-4.1h-2.2v4.1
			H916.9z M915.5,396.9l-0.4,3H915l0.3-3H915.5z M916,396.9l-0.4,3h-0.2l0.3-3H916z M916.2,396.9l-0.2,3h-0.2l0.1-3H916.2z
			 M919.2,371.5v-4.1h-1.4v4.1H919.2z"/>
		<path class="st5" d="M985.4,412.5h-2.3c-0.2,0-0.3,0-0.2,0c0.1,0,0.1-0.1,0-0.2c-0.2-0.1-0.5-0.2-0.8-0.3
			c-0.3-0.1-0.6-0.1-0.9-0.2c-0.3,0-0.7,0-1.2,0.1c-0.4,0.1-0.9,0.1-1.3,0.1c-0.2,0-0.5-0.1-0.8-0.2c-0.3-0.1-0.6-0.1-0.8-0.1H959
			c0,0-0.2,0-0.3,0c-0.2,0-0.4,0.1-0.6,0.1c-0.2,0-0.4,0.1-0.6,0.3c-0.2,0.1-0.3,0.3-0.3,0.4h-19.5v-5c0.4,0,0.8,0,1.2,0
			c0.4,0,0.8,0,1.3-0.1c0.1-0.2,0.3-0.4,0.5-0.7c0.2-0.3,0.3-0.5,0.3-0.7V397h5.5c0.2-0.2,0.3-0.3,0.3-0.4c-0.6-0.1-1.2-0.1-1.7-0.1
			s-1.2,0-1.7,0c0-0.1,0-0.2,0-0.3c0-0.1,0-0.2-0.1-0.3c-0.1,0.1-0.1,0.3-0.1,0.5h-2.1v-3.4c0.2,0.1,0.6,0.2,0.9,0.2
			c0.4,0,0.7,0,0.9-0.3c-0.2-0.2-0.6-0.3-0.9-0.3c-0.4,0-0.7,0.1-0.9,0.2v-7.6c0-0.1-0.1-0.4-0.3-0.8c-0.2-0.4-0.3-0.7-0.5-0.9
			c-0.4,0-0.9,0-1.3,0c0-0.1,0-0.2,0.1-0.2c0.1,0,0.1-0.1,0.1-0.2l0.1,0.1c0,0,0,0.1,0.1,0.2c0.1-0.1,0.1-0.2,0.1-0.4
			c0,0.1,0,0.3,0.1,0.4c0.1-0.1,0.1-0.2,0.1-0.4c0,0.1,0,0.3,0.1,0.4c0.1-0.1,0.1-0.3,0.1-0.5c0,0.1,0,0.2,0,0.3
			c0,0.1,0,0.2,0.1,0.3c0.2-0.2,0.2-0.4,0.1-0.6c-0.1-0.2-0.2-0.3-0.3-0.5c0,0-0.1,0.2-0.1,0.4c0-0.1,0-0.3-0.1-0.4
			c-0.1,0.1-0.1,0.2-0.1,0.3c0,0.1,0,0.2-0.1,0.3v-0.4c-0.1-0.1-0.2-0.1-0.4-0.1c-0.1,0-0.2,0-0.2-0.1c-0.1,0.1-0.1,0.3,0,0.4
			c0.1,0.1,0.1,0.2,0.1,0.4c0-0.1,0-0.3,0-0.4c-0.1-0.1-0.2-0.2-0.3-0.4c0,0,0,0.1-0.1,0.1l-0.1,0.1v-0.5H935l-2.2-6.9h3.2
			c0.1-0.1,0.1-0.3,0.1-0.7c0.1,0.1,0.2,0.2,0.3,0.3c0.1,0.1,0.2,0.3,0.4,0.4l0.9-0.1c-0.1,0-0.2-0.1-0.3-0.3
			c-0.1-0.1-0.2-0.3-0.3-0.4h0.5v-18h2.4c-0.1,0.4-0.1,0.8,0,1c0.2,0.2,0.4,0.4,0.7,0.5c0.3,0.1,0.6,0.1,1,0.1c0.4,0,0.6,0,0.8,0
			c0.1,0,0.4,0,0.9-0.1c0.4,0,0.7-0.1,0.9-0.1c0.2,0,0.3,0,0.3,0.1c0,0.1,0.1,0.1,0.3,0.1h12c0.6,0,1-0.1,1.2-0.4
			c0.2-0.2,0.2-0.7,0.1-1.4h26.1v12h-29.2v1.7h3.5c-0.1,0.5-0.2,0.9-0.2,1.4c0,0.5-0.1,0.9-0.2,1.3h-12.8c0,0.3,0,0.7,0.2,1.2
			c0.2,0.5,0.4,1,0.8,1.5c0.1-0.2,0.2-0.4,0.2-0.5c0-0.1,0-0.3-0.1-0.4c-0.1-0.1-0.1-0.3-0.2-0.4c0-0.1,0-0.3,0.1-0.4h11.6
			c0,0.1,0.1,0.3,0,0.5c0,0.2-0.1,0.6-0.2,1.1h9.1c0.1,0.3,0.3,0.7,0.4,1c0.1,0.3,0.3,0.7,0.5,1.1h12.7c0.1,0.2,0.2,0.5,0.2,0.8
			c0,0.3,0.1,0.5,0.1,0.6l-12.7,0.1c0.1,0.1,0.2,0.3,0.2,0.4c0,0.1,0.1,0.3,0.2,0.4l13.3-0.1c-0.1-0.4-0.3-0.7-0.4-1.1
			c-0.1-0.3-0.2-0.7-0.4-1.1h1.1v11.4h-26.9c-0.1,0.1-0.1,0.3-0.1,0.4h-12.1c0,1,0,1.9,0.1,2.8c0.1,0.9,0.2,1.8,0.3,2.8l3.4,0.1
			c0-0.7,0-1.4,0.1-2.2c0-0.7,0-1.5-0.1-2.4h6.8v3.9h5c0.1,0.6,0.2,1.3,0.3,1.9c0.1,0.7,0.3,1.3,0.6,1.9c3.3,0,6.5,0.1,9.8,0.1
			c3.3,0,6.6,0,9.9,0h-1c-0.1,0.3-0.1,0.5-0.1,0.7s0,0.5-0.1,0.9c0.1,0,0.4,0,0.9,0c0.5,0,1.1,0,1.8,0s1.5,0,2.3,0
			c0.8,0,1.5,0,2.2,0v1.4c-0.7-0.1-1.5-0.1-2.4,0c0.2,0.4,0.6,0.5,1.1,0.4c0.5-0.1,0.9-0.1,1.3-0.1V412.5z M937.7,381.1v-1.5
			c0,0-0.1-0.2-0.3-0.4c-0.2-0.2-0.4-0.5-0.6-0.8c-0.2-0.3-0.4-0.6-0.6-0.9c-0.2-0.3-0.3-0.6-0.3-0.8c0-0.2,0-0.3,0-0.5
			c0-0.1,0-0.2,0-0.3h-2.4l1.6,5.1H937.7z M937.1,380.2h-1.2v-1.7c0.1,0.2,0.3,0.5,0.6,0.8C936.7,379.6,936.9,379.9,937.1,380.2z
			 M939.1,382.9h-0.2v-0.4h0.2V382.9z M939.6,382.8h-0.2v-0.4h0.2V382.8z M943.1,394.1v-0.5h-0.2v0.5H943.1z M943.2,395.4v-0.6H943
			v0.6H943.2z M943.5,397.8v-0.6h-0.2v0.6H943.5z M943.7,398.9v-0.5h-0.2v0.5H943.7z M943.8,400.2v-0.6h-0.2v0.6H943.8z
			 M957.4,401.4v-0.4h-13.6v0.4H957.4z M967.9,379.3c-0.1-0.1-0.1-0.3-0.1-0.4c0-0.1,0-0.3,0-0.4h-19.9l-0.9-2.6h-0.5
			c0.1,0.5,0.3,1.1,0.5,1.6c0.2,0.6,0.4,1.1,0.5,1.6c0.1,0.1,0.3,0.2,0.5,0.2c0.2,0,0.3,0.1,0.4,0.3c0.2,0.5,0.4,1,0.5,1.4h7.4
			c0.1-0.1,0.2-0.3,0.2-0.4c0-0.1,0.1-0.3,0.3-0.5h4.2c0-0.3,0.1-0.6,0.4-0.9H967.9z M948,391.9h-0.2l-0.1,2.8h0.2L948,391.9z
			 M948.4,391.9h-0.2l-0.3,2.8h0.2L948.4,391.9z M948.6,391.8c0,0.3,0,0.7,0,1.1c0,0.5-0.1,1-0.2,1.8c0.1-0.4,0.2-0.9,0.2-1.4
			C948.6,392.8,948.6,392.3,948.6,391.8z M949.2,391.9h-0.2l-0.1,2.8h0.2L949.2,391.9z M949.6,391.9h-0.2l-0.1,2.8h0.2L949.6,391.9z
			 M950,391.9h-0.2l-0.1,2.8h0.2L950,391.9z M950.4,391.9h-0.2l-0.3,2.8h0.2L950.4,391.9z M950.7,392c0,1-0.1,1.9-0.2,2.7
			c0.1-0.7,0.2-1.2,0.2-1.6C950.7,392.8,950.7,392.4,950.7,392z M951.2,391.9H951l-0.1,2.8h0.2L951.2,391.9z M951.6,391.9h-0.2
			l-0.1,2.8h0.2L951.6,391.9z M952,391.9h-0.2l-0.1,2.8h0.2L952,391.9z M952.5,391.9h-0.2l-0.3,2.8h0.2L952.5,391.9z M952.8,391.9
			h-0.2l-0.1,2.8h0.2L952.8,391.9z M953.2,391.9H953l-0.1,2.8h0.2L953.2,391.9z M953.6,391.9h-0.2l-0.1,2.7h0.2L953.6,391.9z
			 M957.1,399.6c-0.1-0.6-0.1-0.9-0.1-1.1c0-0.2,0-0.4,0-0.5h-1.7v1.6H957.1z M957.1,380.6c-0.1,0-0.2,0.1-0.3,0.2
			c-0.1,0.1-0.1,0.3,0,0.4c0.1-0.1,0.2-0.2,0.3-0.4C957.3,380.6,957.2,380.6,957.1,380.6z M957.7,380.6c-0.1,0-0.2,0.1-0.2,0.2
			c0,0.1,0,0.2,0,0.3c0.1-0.1,0.2-0.2,0.3-0.3C957.8,380.6,957.8,380.6,957.7,380.6z M958.1,381.1c0.3-0.1,0.3-0.3,0-0.5V381.1z
			 M967.1,377c0-0.2,0-0.4-0.1-0.6c0-0.1-0.1-0.3-0.1-0.4h-8.7v0.9H967.1z M978,411.8v-0.2h-0.4v0.2H978z M980.8,411.8v-0.2h-0.4
			v0.2H980.8z M983,400.7v-0.5h-0.2v0.5H983z"/>
		<path class="st5" d="M1044.3,371.6c0,0.2,0,0.7-0.1,1.5c-0.1,0.8-0.2,1.5-0.3,2c-0.1,0.6-0.3,1.3-0.5,2.1
			c-0.3,0.8-0.6,1.5-0.9,2.2c-0.1,0.2-0.3,0.6-0.6,0.9c-0.2,0.4-0.5,0.7-0.7,1.1c-0.2,0.2-0.5,0.5-0.8,0.9c-0.3,0.4-0.7,0.7-1,1
			c-0.3,0.3-0.6,0.6-0.9,0.8c-0.3,0.2-0.4,0.3-0.5,0.3h-42.6c-0.1-0.3-0.2-0.7-0.2-1.1c0-0.5-0.1-0.9-0.3-1.2
			c-0.1-0.4-0.3-0.6-0.5-0.8c-0.2-0.2-0.6-0.2-1.2,0l-0.1-4.5c-0.1,0.1-0.3,0.2-0.4,0.2c-0.1,0-0.2,0.1-0.4,0.2v20.4
			c0.2,0.2,0.5,0.4,0.8,0.5v-7.5h17.6v21.8h-12.2c-0.1,0.2-0.1,0.5-0.1,0.8c0,0.3,0,0.5,0,0.8c-0.2-0.2-0.4-0.5-0.7-0.7
			c-0.3-0.2-0.6-0.5-0.8-0.8h-3.7v-7.3c-0.4-0.4-0.9-0.7-1.4-1c-0.5-0.3-1-0.7-1.5-1c0.1-0.1,0.3-0.3,0.6-0.6
			c0.3-0.2,0.5-0.4,0.7-0.4c0.1,0,0.4,0.1,0.7,0.4c0.3,0.2,0.6,0.4,0.8,0.5l0.1-0.1v-0.4c-0.4-0.4-0.9-0.7-1.3-1
			c-0.4-0.3-0.9-0.6-1.3-0.9c0.2-0.1,0.5-0.3,0.7-0.5c0.2-0.2,0.5-0.3,0.6-0.3c0.1,0,0.3,0.1,0.5,0.3c0.2,0.2,0.4,0.3,0.6,0.5
			l0.1-0.1v-0.4c-0.4-0.2-0.9-0.5-1.3-0.8c-0.4-0.3-0.9-0.6-1.3-0.9v-35.2c0.5-0.3,0.9-0.6,1.3-0.9c0.4-0.3,0.8-0.6,1.3-0.9v-5.5h31
			c0.1,0,0.6,0,1.3,0.1c0.7,0.1,1.4,0.1,2,0.2c2.8,0,5.3,0.5,7.4,1.3c2.1,0.8,3.8,1.9,5.2,3.3c1.4,1.4,2.4,3,3.1,4.9
			C1044,367.5,1044.3,369.5,1044.3,371.6z M1037.7,384.7c-1.2,0.8-2.3,1.4-3.4,1.8s-2.2,0.7-3.5,1.1c0.7,0.3,1.3,0.6,2,0.9
			c0.7,0.3,1.3,0.7,2,1h-41.5v-2.3l0.2,0.1h2.2c0.2-0.1,0.4-0.3,0.4-0.5c0-0.2,0-0.4-0.1-0.6c-0.1-0.2-0.2-0.5-0.3-0.7
			c-0.1-0.3-0.1-0.6-0.1-0.9H1037.7z M1026.8,372.9c0-1.1-0.3-2.2-1-3.2c-0.7-1.1-1.8-1.7-3.5-1.9c-0.2,0-0.5-0.1-0.6-0.2
			c-0.2-0.1-0.4-0.1-0.5-0.1h-10.2v3.9h-7.8c-0.1-0.4-0.3-0.8-0.4-1.2c-0.1-0.4-0.2-0.8-0.3-1.2H998v2.4c0.4,0,0.9,0,1.3,0
			c0.4,0,0.8,0,1.2,0.1c0.2,0.2,0.4,0.6,0.5,1.1c0.1,0.5,0.1,0.9,0.1,1.2h9.6c0.2,0.2,0.3,0.5,0.3,0.8c0,0.3,0,0.6,0,0.8
			c0,0.2,0,0.5,0,0.8s-0.1,0.6-0.3,0.8h-9.2v0.8h9.5v1.1h8.4c0.1,0,0.4,0,0.8-0.1c0.4-0.1,0.7-0.2,0.9-0.2c1.9-0.2,3.3-0.8,4.2-1.8
			C1026.3,375.7,1026.8,374.5,1026.8,372.9z M1048.8,412.5h-19.6c-0.9-1.6-1.9-3.3-2.8-5.1c-1-1.8-2-3.6-2.9-5.4
			c-1-1.8-1.9-3.5-2.8-5c-0.9-1.6-1.7-3-2.3-4.2c-0.2-0.4-0.5-0.8-0.9-1.2c-0.4-0.4-0.7-0.7-1.1-1h19.7c0.1,0,0.4,0.2,0.8,0.6
			c0.4,0.4,0.7,0.7,0.9,1c0.4,0.5,0.8,1,1.2,1.5c0.4,0.6,0.8,1.1,1.2,1.7c1.5,2.8,3,5.6,4.4,8.5
			C1045.9,406.8,1047.4,409.7,1048.8,412.5z"/>
	</g>
</g>
<g id="Layer_8">
	<g class="st6">
		<path class="st7" d="M675.3,383.5c-0.2,0-0.3,0-0.4,0.1c-0.1,0.6-0.2,1.2-0.4,1.9c-0.1,0.7-0.1,1.4,0.1,2.1l0.6-0.6v11.5
			c-2.4,1.7-4.8,3.2-7.1,4.4c-2.3,1.2-4.6,2.1-6.9,2.8c-2.3,0.7-4.6,1.2-6.9,1.5s-4.6,0.4-7,0.4c-1.6,0-3.3-0.1-5.3-0.3
			c-1.9-0.2-3.9-0.6-6-1.2c-2-0.6-4-1.4-6-2.5c-2-1.1-3.7-2.5-5.3-4.2c-0.1,0.1-0.2,0.3-0.2,0.4c0,0.1-0.1,0.2-0.2,0.3
			c-0.1-0.1-0.1-0.3-0.1-0.5c0-0.2,0-0.4-0.1-0.6c-0.2-0.2-0.3-0.4-0.4-0.7c-0.1,0.1-0.1,0.3-0.1,0.6c0-0.1,0-0.3,0-0.4
			c0-0.1,0-0.3-0.1-0.6c-0.1,0.1-0.1,0.3-0.1,0.5c0,0.2,0,0.4,0,0.6c0-0.2,0-0.5,0-0.7c0-0.2,0-0.5-0.1-0.7
			c-0.1,0.2-0.1,0.5-0.1,0.6c0,0.2,0,0.4,0,0.6v-0.1h-0.1c0,0-0.1,0-0.1,0c0,0-0.1,0-0.1,0c-0.2,0-0.3,0-0.2,0c0,0,0.1,0,0.1,0.1
			c0-0.4,0-0.9,0-1.3c0-0.4-0.1-0.8-0.3-1.2c-0.1-0.2-0.3-0.6-0.6-1.2s-0.6-1.1-0.9-1.8c-0.3-0.6-0.7-1.3-1-2
			c-0.3-0.7-0.5-1.3-0.6-1.9c0.1,0,0.2,0,0.3,0c0.1,0,0.3,0,0.4-0.1v-0.5c-0.1,0-0.2-0.1-0.4-0.1s-0.3,0-0.4,0c-0.1,0-0.2,0-0.3-0.1
			c-0.1-0.1-0.2-0.3-0.2-0.5h-4.2l-0.4-6c0-0.1,0-0.6,0.1-1.5c0-0.9,0.1-1.6,0.1-2.2c0-0.2,0-0.5,0-0.9c0-0.4,0-0.7,0-1.1
			c0-0.4,0.1-0.7,0.2-0.9c0.1-0.3,0.3-0.4,0.6-0.5v-10.5h5c0.1-0.1,0.2-0.2,0.2-0.3c0-0.1,0.1-0.2,0.2-0.3c-0.1-0.1-0.2-0.1-0.3-0.1
			c-0.1,0-0.3,0-0.4,0c0.1-0.2,0.1-0.5,0.1-0.7s0-0.4,0-0.7c0.2,0,0.5,0,0.7,0c0.2,0,0.4-0.1,0.6-0.3c0.1-0.1,0.3-0.4,0.6-0.7
			c0.2-0.3,0.5-0.7,0.8-1c0.3-0.4,0.6-0.8,0.9-1.3s0.5-0.9,0.7-1.3c0.1-0.1,0.1-0.5,0.1-1.2c0-0.6,0-1.2,0-1.7h1.8
			c0.1,0.1,0.1,0.2,0.1,0.4c0,0.2,0,0.3,0.1,0.4c1.6-1.5,3.4-2.7,5.2-3.6c1.8-0.9,3.7-1.6,5.6-2.1c1.9-0.5,3.7-0.8,5.6-0.9
			s3.7-0.2,5.5-0.2c2.2,0,4.5,0.1,7.1,0.4c2.6,0.2,5.1,0.9,7.6,1.9c2.5,1,4.7,2.6,6.8,4.8c2,2.2,3.5,5.1,4.5,8.9l-10.6,1.9
			c-0.2,0-0.4,0-0.7-0.3c-0.3-0.2-0.5-0.3-0.6-0.3h-5.7c-0.3-0.7-0.7-1.4-1.4-2c-0.6-0.6-1.3-1.1-2.1-1.5c-0.8-0.4-1.5-0.8-2.3-1
			c-0.8-0.2-1.4-0.4-1.9-0.4h-0.9v9.8c0,0.2,0,0.3,0.1,0.3c0.1,0,0.2,0,0.2,0.1c0.1,0.4,0.1,0.9,0.1,1.3c0,0.4,0,0.9,0,1.3l14.2,0.1
			c0.3,0.1,0.7,0.3,1.1,0.5c0.5,0.3,0.9,0.4,1.2,0.5c1,0.1,1.9,0.2,2.8,0.1c0.9,0,1.8,0,2.8,0h-5c-0.1,0.1-0.1,0.2,0,0.2
			c0.1,0,0.2,0,0.3,0l-4.6,2.1c0,0.2,0.2,0.3,0.4,0.4c0.2,0,0.5,0.1,0.8,0c0.3,0,0.6-0.1,0.9-0.1c0.3,0,0.5-0.1,0.7-0.1
			c0.8,0,1.7-0.1,2.7-0.1c1.1,0,2.1-0.1,3.1-0.1c1,0,1.8-0.1,2.6-0.1c0.7,0,1.1,0,1.2,0c0.1,0,0.3,0,0.5,0c0.2,0,0.4,0,0.5,0
			c0,0,0,0.1,0.1,0.3c0.1,0.1,0.2,0.2,0.4,0.2V383.5z M623,397.9v-1.1h-0.3v1.1H623z M623.2,398.6v-1.4H623v1.4H623.2z M668.5,395.6
			c-6.2,0-12.5,0-18.7,0c-6.2,0-12.4,0-18.7-0.1c-0.1-0.1-0.2-0.2-0.3-0.3c-0.1-0.1-0.1-0.2-0.1-0.3h-4.1c-0.1-0.2-0.2-0.3-0.3-0.4
			c-0.1-0.1-0.2-0.2-0.2-0.4v-4.8h11.1c0.8,1.2,1.7,2.2,2.6,2.9c0.9,0.7,1.8,1.3,2.8,1.8c0.9,0.4,1.9,0.7,2.8,0.9
			c1,0.1,1.9,0.2,2.8,0.2c1.9,0,3.8-0.3,5.8-1c2-0.6,3.8-1.5,5.5-2.6v-1.2h-3.3l0.6-7.1h-8.6v-7.7c0-0.2,0-0.3-0.1-0.3
			c-0.1,0-0.2,0-0.3-0.1V374c0-0.2,0-0.4,0-0.6c0-0.2,0-0.4,0-0.6c0.1-0.1,0.2-0.1,0.2-0.1c0,0,0.1,0,0.1-0.2v-10.9h-1.5
			c-0.7,0-1.4,0.1-2.3,0.4c-0.8,0.3-1.7,0.6-2.5,1c-0.8,0.4-1.6,0.9-2.3,1.5c-0.7,0.6-1.3,1.2-1.7,1.9h-7.4
			c-0.1,0.1-0.2,0.2-0.3,0.3c-0.1,0.1-0.2,0.2-0.3,0.3c0.1,0.1,0.3,0.3,0.4,0.4c0.1,0.1,0.2,0.3,0.3,0.4c1.5,0,2.7,0,3.6,0
			c0.9,0,1.5,0,1.9,0c0.4,0,0.7,0,0.8,0c0.1,0,0.2,0,0.2,0.1c-0.8,1.5-1.3,3.2-1.5,4.9c-0.2,1.8-0.4,3.5-0.4,5.4c0,0.1,0,0.3,0,0.7
			c0,0.4,0,0.8,0.1,1.3c0,0.5,0,1,0.1,1.6c0,0.6,0,1,0,1.5l-0.1,0.1h-9.5v-3.4c0,0.6,0,1.1,0,1.7s0,1.1-0.1,1.6
			c0,0.1-0.1,0.3-0.2,0.3c-0.1,0.1-0.1,0.2-0.2,0.3c0,0.3-0.1,0.6-0.1,1c0,0.4,0,0.7,0.1,0.9c0.3,0.2,0.5,0.7,0.4,1.3
			c-0.1,0.6-0.1,1.2-0.1,1.5c0,0.1-0.1,0.1-0.2,0.1c-0.1,0-0.2,0-0.2,0c0,0.1-0.1,0.2-0.1,0.3s0,0.2-0.1,0.3c0.1,0,0.2,0,0.4,0
			s0.3,0,0.4,0.1c0,0.2,0,0.5-0.1,0.6c-0.1,0.2-0.1,0.4-0.1,0.5v4.6c0,0.2,0,0.3,0.1,0.4c0.1,0,0,0.1-0.1,0.2L668.5,395.6z
			 M637,388.8h-11.1V386h10.2c0.1,0.4,0.2,0.9,0.4,1.4C636.7,387.9,636.9,388.3,637,388.8z M660,383.5h-2.9l-0.4,5.5h2.9v-5
			c0.1-0.1,0.2-0.2,0.2-0.3C659.9,383.7,659.9,383.6,660,383.5z M659.7,367.7c-0.3,0.1-0.6,0.2-1,0.3c-0.4,0.1-0.8,0.2-1.2,0.3
			c0-0.1,0-0.2,0-0.3c0-0.1,0-0.2-0.1-0.2H659.7z"/>
		<path class="st7" d="M681.3,393.8l-0.1,5.3H681l0.1-5.3H681.3z M729.8,407h-44.7v-1.7c-0.3-0.1-0.7-0.1-1.1-0.1
			c-0.4,0-0.8,0-1.1,0c-0.2-0.2-0.4-0.6-0.8-1.1c-0.3-0.5-0.5-0.8-0.5-1v-9.6c0.4-0.4,0.7-0.8,1.1-1.2c0.3-0.4,0.7-0.9,1.1-1.4
			l-0.1-1.7c-0.1,0.1-0.3,0.3-0.6,0.6c-0.3,0.3-0.5,0.5-0.8,0.7v-0.6c0-0.2,0.2-0.5,0.6-0.8c0.4-0.3,0.7-0.6,1-0.9v-0.1
			c0,0,0-0.1-0.1-0.1c-0.1,0.2-0.4,0.5-0.6,0.7s-0.6,0.5-0.9,0.8c-0.1-0.5,0-0.9,0.3-1.2c0.3-0.3,0.7-0.6,1.1-1c0,0.1,0,0.2,0,0.2
			c0,0,0,0.1,0.1,0.2v-12.4v8.7c-0.1,0.2-0.3,0.5-0.6,0.7c-0.3,0.2-0.6,0.4-0.9,0.6v-0.6c0.2-0.2,0.5-0.4,0.7-0.7
			c0.2-0.3,0.4-0.6,0.6-0.9l-0.1-17.3l0.4,0.3h0.1c0,0,0.1,0,0.1-0.1c-0.1-0.2-0.3-0.3-0.4-0.4c-0.1-0.1-0.2-0.2-0.3-0.4
			c0.2,0.2,0.4,0.2,0.6,0.1l-0.6-0.6l0.4,0.3h0.1c0,0,0.1,0,0.1-0.1l-0.6-0.6l0.4,0.3h0.1c0,0,0.1,0,0.1-0.1l-0.6-0.6l0.4,0.3h0.1
			c0,0,0.1,0,0.1-0.1l-0.6-0.6v-2.7c0.3,0.2,0.5,0.4,0.6,0.6c0.1,0.2,0.1,0.5,0.1,0.8c0,0.3,0,0.5,0,0.8c0,0.3,0,0.5,0.2,0.7
			c0.1-0.2,0.1-0.4,0.1-0.6s0-0.4,0-0.6c0-0.4,0-0.7-0.1-0.8c0-0.1-0.1-0.2-0.2-0.3c-0.1-0.1-0.2-0.2-0.3-0.3
			c-0.1-0.1-0.3-0.4-0.5-0.8c-0.1-0.2-0.2-0.6-0.3-0.9c0-0.4,0-0.8,0-1.2c0-0.4,0-0.7,0.1-1c0-0.3,0-0.5,0-0.6c0-0.5,0-1,0.1-1.5
			c0.1-0.5,0.7-0.7,1.7-0.8c0.1-1.2,0.1-2.4,0-3.6h17.6v4h-6c-0.3,1.1-0.5,2.2-0.7,3.3c-0.2,1.1-0.4,2.3-0.6,3.5h-5.5v1.1h12.8v1.8
			c0.2,0.1,0.5,0.1,0.8,0.1c0.3,0,0.7,0,1.3-0.1v10.5l-0.1-6.8c-0.3-0.1-0.6-0.1-0.9-0.1c-0.3,0-0.6,0.1-0.9,0.1v20.5l1.5,0.1v-6.5
			c0,1.9,0.1,3.7,0,5.4c0,1.8-0.2,3.5-0.4,5.4c0,0,0,0.1,0.1,0.1c0.1,0.1,0.2,0.1,0.3,0.1h25.6V407z M683.6,384.5
			c-0.2,0.2-0.6,0.6-1,1c-0.4,0.4-0.5,0.8-0.4,1.2c0.4-0.3,0.8-0.6,1.1-1C683.6,385.2,683.7,384.8,683.6,384.5z M683.6,385.8
			c-0.3,0.4-0.7,0.7-1,0.9c-0.3,0.2-0.5,0.6-0.4,1.3c0.3-0.3,0.7-0.6,1.1-1C683.7,386.5,683.8,386.1,683.6,385.8z M684.3,371.1
			c0,0.2,0,0.4-0.2,0.6c-0.2,0.2-0.3,0.4-0.5,0.5v-1.7c0.2,0.2,0.3,0.3,0.4,0.3c-0.1-0.7-0.1-1.3,0-2c0.1-0.7,0.2-1.4,0.2-2.2V371.1
			z M700,405.7v-0.6h-10.3l-0.1,0.6H700z M706.4,399.6c-0.7,0-1.3,0-1.7,0c-0.4,0-0.6,0-0.7,0c-0.1,0-0.2,0.1-0.2,0.1
			c0,0.2,0,0.5,0,0.6c0,0.2,0,0.4-0.1,0.6h-1.5c-0.1-0.2-0.1-0.5-0.1-0.6c0-0.2,0-0.4,0-0.5c-0.1,0-0.2,0-0.4-0.1
			c-0.1,0-0.2-0.1-0.2-0.2h-10.2c-0.1-0.4-0.3-0.8-0.4-1.2c-0.1-0.4-0.2-0.8-0.3-1.2h-0.6v0.7c0,0.2,0,0.4,0.1,0.5
			c0.1,0.1,0.2,0.3,0.2,0.4c0,0.5,0.1,1,0.1,1.5s0,1,0,1.5h10.5c0.1,0.5,0.2,1.1,0.3,1.6c0.1,0.5,0.2,1,0.3,1.4h6.8
			c0.3-1.9,0.7-3.7,1.3-5.4C708.2,399.6,707.2,399.6,706.4,399.6z M704.5,381.7h-0.2v-6.6h0.2V381.7z"/>
		<path class="st7" d="M755.7,382.2l-0.7,7.1h-4.6c0,0,0.1,0.1,0.2,0.1c0.1,0,0.3,0,0.7,0s0.9,0,1.5-0.1c0.7,0,1.6,0,2.9,0v17.1
			h-17.5v-7.1c-0.4,0.4-0.9,0.8-1.3,1.3c-0.4,0.5-0.9,0.9-1.3,1.3c0-0.5-0.1-1.1-0.2-1.7c-0.1-0.6-0.1-1.1,0.2-1.5
			c0.2-0.5,0.6-1,1.1-1.4c0.5-0.4,1-0.9,1.5-1.4l-0.1-1.5l-2.6,2.7c0-0.5-0.1-1.1-0.2-1.7c-0.1-0.6-0.1-1.1,0.2-1.5
			c0.3-0.6,0.7-1.2,1.2-1.6c0.5-0.4,1-0.9,1.4-1.4l-0.1-1.4l-2.6,2.7c0-0.5,0-1.1-0.1-1.7c-0.1-0.6,0-1.1,0.1-1.5
			c0.2-0.6,0.6-1.2,1.2-1.6c0.6-0.4,1-0.9,1.5-1.4l-0.1-1.4l-2.6,2.7c0-0.5,0-1.1-0.1-1.7c-0.1-0.6,0-1.1,0.1-1.5
			c0.2-0.6,0.6-1.2,1.2-1.6c0.6-0.4,1-0.9,1.5-1.4l-0.1-1.4l-2.6,2.7c0-0.5-0.1-1.1-0.2-1.7c-0.1-0.6-0.1-1.2,0.2-1.7
			c0.2-0.6,0.6-1.1,1.2-1.5c0.6-0.4,1-0.9,1.5-1.4l-0.1-1.4c-0.4,0.4-0.8,0.8-1.3,1.3c-0.5,0.5-0.9,0.9-1.3,1.5
			c0-0.5-0.1-1.1-0.2-1.7c-0.1-0.6-0.1-1.2,0.2-1.7c0.2-0.6,0.6-1.1,1.1-1.5c0.5-0.4,1-0.9,1.5-1.4l-0.1-1.4
			c-0.4,0.4-0.8,0.8-1.3,1.3c-0.5,0.5-0.9,0.9-1.3,1.5c0-0.5-0.1-1.1-0.2-1.7c-0.1-0.6-0.1-1.2,0.2-1.7c0.1-0.2,0.5-0.6,1.1-1.2
			c0.6-0.6,1.2-1.1,1.6-1.7c0.1-0.1,0.1-0.3,0.1-0.5c0-0.2,0-0.5,0-0.7c0.5,0.1,1,0,1.3-0.4c0.4-0.4,0.8-0.8,1.3-1.3l-0.1-1.5
			l-5.3,5.6c0-0.5-0.1-1.1-0.2-1.7c-0.1-0.6-0.1-1.1,0.2-1.5c0.3-0.6,0.7-1.2,1.3-1.7c0.6-0.5,1.1-1,1.7-1.5
			c-0.1-0.1-0.2-0.3-0.2-0.5c0-0.2-0.1-0.5-0.2-0.8l-2.6,2.7c0-0.5,0-1.1,0-1.7c0-0.6,0-1.1,0-1.6c0.6-0.6,1-1.1,1.3-1.4
			c0.3-0.4,0.6-0.8,0.9-1.1c0.3-0.4,0.4-0.6,0.4-0.8v-6.1h17.4v10.9h-0.7c-0.1,0.3-0.2,0.7-0.1,1.2c0.1,0.5,0.2,0.9,0.3,1.4
			c0.1,0.4,0.3,1,0.5,1.7v1.4h-14.5l-0.8,0.8h15.3V382.2z M745.1,365c-0.1-0.8-0.3-1.6-0.3-2.3c-0.1-0.7-0.2-1.3-0.3-1.9h-1.4
			l0.7,4.2H745.1z M746.9,365l-0.7-4.2h-1.3c0.1,0.9,0.3,1.6,0.3,2.3c0.1,0.7,0.2,1.3,0.3,1.9H746.9z M748.5,365
			c-0.1-1.1-0.3-1.9-0.3-2.4c-0.1-0.6-0.2-1.2-0.3-1.7h-1.4l0.7,4.2H748.5z M750.2,365l-0.7-4.2h-1.3c0.1,0.9,0.3,1.6,0.3,2.3
			c0.1,0.7,0.2,1.3,0.3,1.9H750.2z M751.8,365l-0.6-4.2h-1.4l0.7,4.2H751.8z M753.5,365l-0.7-4.2h-1.3c0.1,0.7,0.2,1.4,0.3,2.1
			c0.1,0.7,0.2,1.4,0.3,2.1H753.5z M755.1,365c-0.1-1.1-0.3-1.9-0.3-2.4c-0.1-0.6-0.2-1.2-0.3-1.7h-1.4l0.7,4.2H755.1z"/>
		<path class="st7" d="M815.1,364.7h-6c0.1,0.3,0.3,0.4,0.6,0.3c0.3-0.1,0.5-0.1,0.7-0.1c-0.3,0.2-0.8,0.6-1.4,1
			c-0.6,0.4-1.1,0.6-1.3,0.6c0,0-0.2-0.1-0.5-0.3c-0.3-0.2-0.7-0.2-1.3,0.1l-0.2,0.1v-5.2c-0.5-0.4-1.1-0.8-1.8-1.3
			c-0.6-0.5-1.1-0.7-1.3-0.7h-17.1c-0.2,0.1-0.3,0.2-0.4,0.4c0,0.2-0.1,0.3-0.2,0.5h-4.3c-0.2,0-0.4-0.1-0.6-0.3
			c-0.2-0.2-0.4-0.5-0.5-0.7h-17.6v-8.6h10.3c0,0-0.1-0.1-0.3-0.2c-0.1-0.1-0.3-0.2-0.4-0.4h30.9c0.2,0,0.4,0.1,0.8,0.4
			c0.3,0.2,0.6,0.4,0.8,0.4h11.1v10.4l-5.8,0.1l-0.1,0.9h5.9V364.7z M804.9,366.2h-7.3c-0.1,0.1-0.2,0.3-0.3,0.5
			c-0.1,0.2-0.2,0.4-0.3,0.6h-6.6c-0.2,0-0.4,0.1-0.7,0.3c-0.3,0.2-0.6,0.3-0.9,0.5h7.6v8.1h-16.4v-6.3h-10.4c0.3-0.3,0.7-0.6,1.2-1
			c0.5-0.4,0.9-0.7,1.3-1c0.4-0.3,0.8-0.6,1.2-0.8c0.3-0.2,0.6-0.4,0.6-0.4h4.2c0.1,0,0.4,0,0.7-0.1c0.3-0.1,0.6-0.2,0.9-0.4h-11
			c0-0.3,0-0.5-0.1-0.6v0.1c0,0.1-0.1,0.1-0.2,0.1c-0.2,0-0.2,0-0.1-0.1c0.1,0,0.1-0.1,0-0.2l-0.3,0.2c0-0.1,0-0.3-0.1-0.5
			c-0.1-0.2-0.1-0.4-0.1-0.5c0,0-0.1-0.1-0.2-0.1c-0.1,0-0.2,0-0.5,0c-0.3,0-0.6,0-1.2,0s-1.2,0-2.1,0c0.2-0.1,0.4-0.4,0.7-0.6
			c0.3-0.3,0.6-0.5,0.9-0.8s0.6-0.5,0.9-0.7c0.3-0.2,0.6-0.3,0.9-0.2c0.1-0.1,0.1-0.1,0.1-0.1c0,0,0,0,0-0.2c0-0.5-0.1-0.7-0.2-0.7
			s-0.4,0-0.6,0s-0.7,0.1-1.1,0.4c-0.5,0.3-0.9,0.6-1.3,0.9c-0.4,0.3-0.8,0.7-1.2,1c-0.4,0.3-0.6,0.6-0.8,0.6v-4.5h15.8
			c0.2,0,0.5,0.2,0.9,0.6c0.4,0.4,0.7,0.6,0.9,0.6l6.6,0.1c0.1-0.2,0.3-0.3,0.4-0.5c0.1-0.2,0.3-0.4,0.6-0.7h9.1
			c0.2,0,0.4,0.1,0.5,0.3c0.2,0.2,0.3,0.3,0.5,0.3h5.3c0.2,0,0.5,0.2,1,0.5c0.5,0.4,0.9,0.7,1.3,0.9V366.2z M772.6,362.3
			c-0.2-0.2-0.5-0.4-0.6-0.6c-0.2-0.3-0.4-0.4-0.6-0.4l-3.3,0.1c0,0.1,0,0.3,0.1,0.5c0,0.2,0.1,0.3,0.1,0.4H772.6z M778.8,365.3
			v-0.6h-10.2v0.3c0,0.2,0,0.4,0.1,0.4H778.8z M775.1,349.6c-0.2,0-0.5-0.1-0.8-0.2s-0.6-0.3-0.8-0.4h0.8c0.2,0,0.3,0.1,0.4,0.2
			C774.8,349.3,774.9,349.5,775.1,349.6z M776.7,349.6c-0.1,0-0.4,0-0.7-0.1c-0.3-0.1-0.7-0.3-1-0.6h0.8c0.1,0,0.3,0.1,0.5,0.3
			C776.4,349.4,776.5,349.5,776.7,349.6z M778.1,349.6c-0.1,0-0.4,0-0.7-0.1c-0.3-0.1-0.7-0.3-1-0.6h1c0.1,0.1,0.2,0.2,0.3,0.3
			C777.8,349.4,778,349.5,778.1,349.6z M779.6,349.6c-0.1,0-0.4,0-0.7-0.2c-0.3-0.2-0.7-0.3-1-0.5h1c0.1,0.1,0.2,0.2,0.3,0.3
			C779.3,349.4,779.4,349.5,779.6,349.6z M779.8,365.2V365l-0.6,0.1v0.2L779.8,365.2z M781,349.6c-0.1,0-0.4,0-0.7-0.2
			c-0.3-0.2-0.7-0.3-1-0.5h1c0.1,0.1,0.2,0.2,0.3,0.3C780.7,349.4,780.9,349.5,781,349.6z M797.3,407.2h-17.4v-7h2
			c0-0.1-0.1-0.2-0.1-0.3c0,0,0-0.2,0-0.5s0-0.9,0-1.8c0-0.9,0-2.2,0.1-4c0.1-0.1,0.2-0.1,0.3-0.1c0.1,0,0.2,0,0.3-0.1
			c0-0.2,0-0.6,0-1c0-0.4,0.1-0.9,0.1-1.3c0-0.4,0.1-0.8,0.1-1.2c0-0.4,0-0.6,0-0.7c0-0.1,0-0.3,0-0.6c0-0.3-0.1-0.6-0.1-1
			c0-0.4-0.1-0.7-0.1-1.1c0-0.4,0-0.7,0-1c-0.4-0.2-0.8-0.3-1.2-0.3c-0.4,0-0.8,0-1.4,0v-8.6h16.3v13.9c0,0.2,0.1,0.4,0.3,0.6
			c0.2,0.2,0.4,0.5,0.7,0.7V407.2z M782.4,349.6c-0.1,0-0.4,0-0.7-0.2c-0.3-0.2-0.7-0.3-1-0.5h1c0.1,0.1,0.2,0.2,0.3,0.3
			C782.2,349.4,782.3,349.5,782.4,349.6z M783.9,349.6c-0.1,0-0.4,0-0.7-0.2c-0.3-0.2-0.7-0.3-1-0.5h1c0.1,0.1,0.2,0.2,0.3,0.3
			C783.6,349.4,783.7,349.5,783.9,349.6z M785.3,349.6c-0.3,0.1-0.6,0.1-0.8-0.1c-0.3-0.2-0.6-0.3-0.9-0.5h1
			c0.1,0.1,0.2,0.2,0.3,0.3C785,349.4,785.2,349.5,785.3,349.6z M786.8,349.6c-0.1,0-0.4-0.1-0.8-0.2c-0.4-0.1-0.6-0.3-0.8-0.5h0.9
			c0.1,0.1,0.2,0.2,0.3,0.3C786.5,349.4,786.6,349.5,786.8,349.6z M788.2,349.6c-0.1,0-0.4-0.1-0.8-0.2c-0.4-0.1-0.6-0.3-0.8-0.5
			h0.9c0.1,0.1,0.2,0.2,0.3,0.3C787.9,349.4,788.1,349.5,788.2,349.6z M789.6,349.6c-0.1,0-0.4-0.1-0.8-0.2
			c-0.4-0.1-0.6-0.3-0.8-0.5h0.8c0.2,0,0.3,0.1,0.4,0.2C789.4,349.3,789.5,349.5,789.6,349.6z M790.4,362.1
			c-0.3-0.2-0.6-0.3-0.9-0.5c-0.3-0.2-0.6-0.3-0.8-0.3l-0.5,0.1c0.4,0.2,0.8,0.4,1.2,0.5C789.8,362.1,790.1,362.1,790.4,362.1z
			 M791.1,349.6c-0.1,0-0.4-0.1-0.8-0.2c-0.4-0.1-0.6-0.3-0.8-0.5h0.9c0.1,0.1,0.2,0.2,0.3,0.3C790.8,349.4,790.9,349.5,791.1,349.6
			z M792.2,361.7v-0.2h-0.4v0.3L792.2,361.7z M797,361.3l-1.6,0.1c0.2,0.1,0.4,0.2,0.5,0.4c0.2,0.1,0.3,0.2,0.5,0.2
			c0.2,0,0.3-0.1,0.4-0.2C796.8,361.5,796.9,361.4,797,361.3z M801.7,364.9v-0.2h-0.5v0.2H801.7z M802.2,362.1v-0.9l-0.5,0.1v0.8
			H802.2z M805.6,360.5v-1.2h-2c0.3,0.1,0.6,0.4,1,0.6C805.1,360.2,805.4,360.4,805.6,360.5z"/>
		<path class="st7" d="M873.4,388.9h-6.8v0.9h6.6c-1.2,3.7-2.8,6.7-4.6,8.9c-1.8,2.3-3.9,4-6.1,5.2c-2.2,1.2-4.6,2.1-7.1,2.5
			c-2.5,0.4-4.9,0.6-7.4,0.6c-2.2,0-3.9-0.1-5.2-0.3c-1.3-0.2-2.5-0.3-3.6-0.5c-0.3,0-0.6-0.1-1-0.3c-0.4-0.1-0.8-0.3-1.3-0.4
			c-0.4-0.1-0.8-0.3-1.2-0.4c-0.3-0.1-0.6-0.1-0.6-0.1h-6.3c0-0.1,0-0.3-0.1-0.5c0-0.2-0.1-0.3-0.1-0.4l3.9-0.1
			c-1.2-0.6-2.5-1.4-3.8-2.4s-2.5-2.3-3.6-3.7c-0.1,0.2-0.1,0.5-0.1,0.8c0,0.3,0,0.6,0,0.8c0,0.2,0,0.4,0,0.7c0,0.3,0,0.6,0,0.8
			c0.1,0.5,0.2,1.1,0.4,1.6c0.2,0.5,0.4,1,0.6,1.5c0.2,0.1,0.4,0.1,0.6,0.1s0.5-0.1,0.7-0.1c0.2,0,0.4,0.1,0.6,0.2
			c0.2,0.1,0.3,0.5,0.4,0.9h-2.7c-0.1-0.5-0.2-1-0.4-1.6c-0.2-0.6-0.4-1.2-0.5-1.8c-0.2-0.6-0.3-1.3-0.5-1.9s-0.2-1.3-0.1-1.9h-7.1
			c0.2-0.3,0.5-0.6,0.9-0.9c0.4-0.3,0.7-0.7,1.1-1.1c-0.2-0.5-0.5-1.1-0.8-1.8c-0.3-0.7-0.4-1.1-0.4-1.3v-5.3
			c-0.1-0.1-0.3-0.3-0.4-0.4c-0.1-0.1-0.3-0.3-0.4-0.4h0.9v-16.1c-0.6-0.6-1.2-1.2-1.6-1.8c0.1-0.1,0.3-0.1,0.5,0
			c0.3,0.1,0.5,0.1,0.7,0.1h0.8c0-0.1,0.1-0.4,0.1-0.6c0-0.3,0.1-0.6,0.2-0.8c0.1-0.2,0.2-0.4,0.4-0.6c0.2-0.1,0.5-0.1,0.9,0
			c1.2-3.8,2.7-6.9,4.7-9.3c2-2.4,4.2-4.3,6.7-5.6c2.5-1.3,5.1-2.3,7.8-2.8c2.7-0.5,5.4-0.8,8-0.8c2.5,0,5,0.2,7.6,0.6
			c2.6,0.4,5,1.3,7.3,2.6c2.3,1.3,4.4,3,6.3,5.3c1.9,2.3,3.4,5.3,4.6,9l-15.4,3.5c-0.1-0.9-0.5-1.8-1.1-2.7
			c-0.6-0.9-1.3-1.8-2.1-2.5c-0.8-0.8-1.7-1.4-2.6-1.9c-0.9-0.5-1.8-0.7-2.6-0.8l-2.7,0.1c0.1,0.4,0.3,0.5,0.6,0.4
			c0.3-0.1,0.5-0.1,0.6,0c0.1,0.2,0.2,0.5,0.4,0.8c0.2,0.3,0.3,0.5,0.3,0.7V389c0,0.1,0,0.3-0.1,0.3c-0.1,0.1-0.1,0.2-0.1,0.3
			c0.4,0.1,0.9,0.1,1.4,0c0.5-0.1,0.9,0,1.3,0.1c0.5,0.2,0.8,0.4,0.9,0.6c0.1,0.1,0.3,0.3,0.4,0.3c0.1,0.1,0.2,0.1,0.4,0.1
			c0.2,0,0.6,0,1.1,0c0.1,0,0.3,0,0.5,0.1c0.2,0,0.4,0,0.5-0.1c1.1-1.1,1.9-2.3,2.4-3.7c0.5-1.4,0.9-2.7,1.2-4.1h0.7
			c0.1,0,0.4,0.1,0.8,0.2c0.4,0.1,0.9,0.3,1.5,0.4c0.6,0.2,1.1,0.3,1.7,0.5c0.6,0.2,1.1,0.4,1.4,0.5c0.1,0.1,0.3,0.2,0.4,0.4
			c0.1,0.2,0.3,0.4,0.4,0.5c0.7,0,1.5,0,2.2,0.1c0.7,0.1,1.5,0.3,2.2,0.5c0.7,0.2,1.4,0.5,2.1,0.7c0.7,0.3,1.3,0.5,1.9,0.6
			C873.5,388,873.4,388.4,873.4,388.9z M824.2,373.1h-5.3v-0.6c-0.1,0.2-0.2,0.5-0.3,0.7c-0.1,0.2-0.1,0.4-0.1,0.5l-0.1,11.2
			c0.2,0.1,0.4,0.3,0.5,0.3c0.1,0.1,0.3,0.2,0.4,0.3c0-0.1,0-0.2-0.1-0.3c-0.1-0.1-0.2-0.2-0.3-0.3c0.1-0.1,0.2-0.1,0.2-0.1
			c0,0,0.1,0,0.1-0.1c-0.1-0.5-0.2-1-0.3-1.5c-0.1-0.5-0.1-0.9-0.2-1.3c0-0.4-0.1-0.8,0-1.1c0-0.4,0-0.7,0-1c0-0.2-0.1-0.5-0.1-0.9
			c0-0.4,0-0.7,0.3-0.9h5.2v-1h-5.4v-1c0-1.2,0-1.9,0.1-2.3c0.1-0.4,0.3-0.5,0.7-0.5c0.4,0,0.9,0.1,1.7,0.2
			C822,373.3,822.9,373.3,824.2,373.1z M819.5,386.7v-0.5c-0.1-0.1-0.3-0.2-0.5-0.3c-0.2-0.1-0.4-0.2-0.6-0.3v1.1H819.5z
			 M822.6,394.3c-0.3-0.6-0.6-1.2-0.9-1.8c-0.3-0.6-0.6-1.2-0.8-1.8c0-0.1-0.1-0.3-0.1-0.5c0-0.2-0.1-0.4-0.2-0.5
			c-0.3-0.3-0.7-0.7-1-1c-0.4-0.3-0.7-0.6-1-0.8v3c0,0.7,0.1,1.5,0.3,2.5c0.2,0.9,0.4,1.6,0.5,2.1c0.3-0.1,0.5-0.3,0.7-0.5
			c0.2-0.2,0.4-0.3,0.6-0.5c0.2-0.2,0.4-0.3,0.8-0.4C821.7,394.2,822.1,394.2,822.6,394.3z M824.1,371.1v-0.6h-0.9l-0.6,0.6H824.1z
			 M824.1,383.1v-1.2c0,0.1,0,0.3-0.1,0.5c-0.1,0.2-0.1,0.4-0.1,0.5L824.1,383.1z M836.4,383.2v-2.2l-0.1-6.5v2.4h-11.7v0.8
			c0.1,0.1,0.3,0.2,0.4,0.2c0.1,0,0.2,0.1,0.2,0.3c0,0.2-0.1,0.5-0.3,1c-0.2,0.5-0.3,0.8-0.3,1v3H836.4z M836.5,371v-0.6h-11.4v0.8
			h10.4c0-0.2,0-0.4,0.1-0.5c0-0.1,0.2-0.1,0.4-0.1c0.2,0,0.3,0,0.3,0C836.4,370.6,836.4,370.8,836.5,371z M826,373.2V373h-0.9v0.2
			H826z M828.5,379c-0.1,0.4-0.2,0.9-0.4,1.4s-0.3,1-0.4,1.4h-0.8c0.1-0.5,0.3-1,0.4-1.4c0.1-0.5,0.2-0.9,0.4-1.4H828.5z M830.1,379
			c-0.1,0.4-0.3,0.9-0.4,1.4c-0.1,0.5-0.3,1-0.4,1.4h-0.9c0.1-0.4,0.3-0.9,0.4-1.4c0.1-0.5,0.3-1,0.4-1.4H830.1z M831.7,379.1
			c-0.1,0.4-0.3,0.9-0.4,1.3c-0.1,0.5-0.3,0.9-0.4,1.3H830c0.1-0.4,0.3-0.9,0.4-1.4c0.1-0.5,0.3-1,0.4-1.4L831.7,379.1z
			 M836.4,373.7v-0.2h-5v0.2H836.4z M833.1,379.6c0,0.1-0.1,0.4-0.3,0.9c-0.2,0.5-0.4,0.9-0.5,1.3h-0.8c0.1-0.4,0.3-0.9,0.4-1.4
			c0.1-0.5,0.3-1,0.4-1.4h0.7V379.6z M836.4,373.2V373H832v0.2H836.4z M834.4,379.1c0.1,0.4,0.1,0.8,0,1.2c-0.1,0.4-0.2,0.9-0.2,1.4
			h-1.1c0-0.4,0.2-0.9,0.3-1.4c0.2-0.6,0.3-1.1,0.5-1.4L834.4,379.1z M836,379.8c0,0.2-0.1,0.5-0.2,0.9c-0.1,0.4-0.2,0.8-0.3,1.1
			h-0.9c0.1-0.3,0.3-0.7,0.4-1.2c0.1-0.5,0.2-0.8,0.4-0.8c0.2,0,0.3,0,0.3,0.1c0,0.1,0,0.1,0.1,0.1c0.1-0.1,0.1-0.3,0.1-0.5
			s0-0.4,0-0.5C835.9,379.2,836,379.5,836,379.8z M848.2,382.4v-16.6c-0.5,0.2-0.9,0.2-1.2,0c-0.3-0.2-0.4-0.6-0.5-1
			c-0.1-0.5-0.2-0.9-0.3-1.4c-0.1-0.5-0.2-0.9-0.4-1.2h-1.6c-0.5,0-1.1,0.2-1.8,0.7c-0.7,0.5-1.4,1-2.1,1.6
			c-0.7,0.6-1.3,1.3-1.8,1.9c-0.5,0.7-0.8,1.2-0.9,1.7h6.3c0.2,0,0.4,0.1,0.5,0.3s0.3,0.3,0.4,0.4c-0.2,0.3-0.6,0.6-1,0.6
			c-0.4,0.1-0.7,0.1-0.9,0c-0.1,0.2-0.2,0.4-0.3,0.6c-0.1,0.2-0.2,0.4-0.4,0.4h-5.6v14.1c0,0.2,0.1,0.7,0.4,1.6
			c0.3,0.9,0.5,1.6,0.8,2.2c0.1,0,0.2,0,0.3-0.1c0.1,0,0.2-0.1,0.4-0.1c0.3,0,0.6,0.1,1,0.3c-0.2-0.2-0.1-0.3,0.3-0.3
			c0.2,0,0.5,0.1,1,0.4c0.5,0.2,0.9,0.5,1.2,0.7c-0.8,0.1-1.5,0.1-1.9,0.1c-0.5,0-0.8,0-1,0c-0.4,0-0.6,0-0.6,0.1
			c0.6,0.1,1.3,0.2,2.2,0.2c0.8,0,1.3,0.1,1.5,0.1h5.8v-7c0-0.2,0-0.3,0.1-0.2C848.2,382.6,848.2,382.6,848.2,382.4z M848,368.8
			c-0.1-0.4-0.3-0.9-0.5-1.4s-0.4-1-0.5-1.4h1.1V368.8z"/>
		<path class="st7" d="M938.7,389.9c-0.4,1.3-0.8,2.6-1.1,4h-2.9c-0.1,0.4-0.2,0.8-0.1,1.3h-7.5c0-0.1,0-0.2,0-0.3
			c0-0.1-0.1-0.3-0.3-0.4h-5.3v-0.6h5.2h0.1v-0.1c0,0,0.1-0.1,0.1-0.1c0-0.8-0.4-1.2-1.2-1.2h-4c0-0.1,0-0.3,0-0.5
			c0-0.2,0-0.3-0.1-0.4c-0.3,0.3-0.4,0.7-0.3,1.2c0.1,0.5,0,0.9-0.1,1.3v-2.4c-0.1,0.4-0.2,0.8-0.2,1.2c0,0.4-0.1,0.8-0.2,1.2
			c0.1-0.7,0.2-1.4,0.2-2.2s-0.1-1.3-0.3-1.9h-8.6c0.1-0.6,0.2-1.2,0.2-1.8c0-0.6,0.1-1.3,0.2-1.8h4.6v-1.9h-7.9l1-3.2h5.5
			c0.1-0.1,0.3-0.3,0.5-0.5c0.2-0.2,0.4-0.3,0.5-0.3c0.1,0,0.2,0,0.4,0c0.2,0,0.3,0,0.4-0.1c0.4-0.3,0.8-0.6,1.2-1
			c0.4-0.4,0.8-0.9,1.3-1.3h-8.6c0.1-0.2,0.2-0.5,0.3-0.8s0.2-0.6,0.3-0.9h-24.5l-0.1,0.1v0.8c0.1,0.1,0.2,0.2,0.2,0.2
			c0,0,0.1,0,0.3,0l22.9-0.1c0,0.1,0,0.2-0.1,0.3c-0.1,0.1-0.2,0.2-0.4,0.2l-23,0.1c0,0.2,0.1,0.3,0.4,0.3l22.8-0.1
			c-0.2,0.7-0.4,1.3-0.6,1.8l-22.5,0.3h14.2c0.1,0,0.2,0,0.3,0.1c0.1,0.1,0.3,0.1,0.4,0.1h4.9c0.3,0.5,0.7,0.7,1.2,0.6
			c0.5-0.1,0.9-0.1,1.2,0c-0.1,0.4-0.2,0.8-0.4,1.1c-0.1,0.4-0.3,0.7-0.4,1.1h-21.4c-0.1,0.1-0.1,0.2,0,0.3c0.1,0.1,0.2,0.1,0.3,0.1
			c-0.1,0.1-0.3,0.2-0.5,0.3c-0.2,0.1-0.4,0.2-0.6,0.3c0,0,0.1,0.1,0.2,0.1c0.1,0,0.3,0,0.7,0s0.9,0,1.6,0c0.7,0,1.7,0,3,0
			c0.1,0.1,0.2,0.3,0.2,0.5c0,0.2,0.1,0.4,0.2,0.6h5.5V407h-17.4v-5.3l-2.6-1.4c0.3-0.1,0.6-0.3,0.9-0.4c0.3-0.1,0.7-0.3,1.1-0.6
			c-0.3-0.2-0.6-0.4-0.9-0.6c-0.3-0.1-0.7-0.3-1.1-0.6l2-1c-0.3-0.2-0.6-0.4-0.9-0.6c-0.3-0.1-0.7-0.3-1.1-0.6
			c0.3-0.1,0.6-0.3,0.9-0.4c0.3-0.1,0.7-0.3,1.2-0.6c-0.4-0.2-0.7-0.5-1.1-0.6c-0.3-0.2-0.6-0.4-0.9-0.5c0.4-0.2,0.9-0.4,1.3-0.6
			c0.5-0.2,0.9-0.4,1.3-0.7v-8.1h4.7c0.2,0,0.4-0.1,0.7-0.3c0.3-0.2,0.5-0.4,0.8-0.5c-0.1-0.1-0.1-0.2-0.1-0.2c0,0-0.1,0-0.3,0h-5.8
			V380h5.9c0,0-0.1-0.1-0.2-0.1c-0.1,0-0.3,0-0.7,0c-0.4,0-1,0-1.8,0c-0.8,0-1.9,0.1-3.2,0.1v-1.4l0.4-0.6c1.3,0,2.2,0,3,0
			c0.7,0,1.3,0,1.6,0c0.4,0,0.6,0,0.7,0c0.1,0,0.2-0.1,0.2-0.2l-0.1-0.1c-0.8-0.1-1.8-0.1-2.9-0.1c-1.1,0-2.1,0-2.9,0.1v-0.6h5.9
			v-1.1h-5.9v-25.6h17.5v19.6h19V368h17.6v21.8H938.7z M896.2,386.8c0-0.1,0-0.3,0-0.5c0-0.2,0-0.3,0-0.5h-0.7
			c0.1,0.2,0.3,0.4,0.4,0.5C895.9,386.6,896,386.7,896.2,386.8z M896.9,386.8c0-0.2,0-0.4,0-0.6c0-0.1,0-0.3,0-0.4h-0.6
			c0,0.1,0.1,0.3,0.2,0.5C896.6,386.6,896.8,386.7,896.9,386.8z M897.7,385.9h-0.6c0,0.1,0.1,0.3,0.2,0.5c0.1,0.2,0.2,0.3,0.3,0.4
			c0.1-0.1,0.1-0.3,0.1-0.5C897.7,386.2,897.7,386,897.7,385.9z M905.7,381v-0.2l-0.6-0.1v0.2L905.7,381z M906.3,380.8l-0.6-0.1v0.2
			l0.5,0.1L906.3,380.8z M919.2,378.1l-1.8,1.8h-6.7c0.1-0.3,0.2-0.6,0.3-0.9c0.1-0.3,0.2-0.6,0.3-0.9H919.2z M913.2,387
			c-0.1,0.3-0.2,0.6-0.2,1c0,0.4-0.1,0.7-0.1,0.9c0.1-0.2,0.2-0.5,0.2-0.9S913.2,387.3,913.2,387z M913.6,387.1h-0.3l-0.1,1.9h0.2
			L913.6,387.1z M914,387.1h-0.2l-0.3,1.9h0.2L914,387.1z M914.9,387c-0.1,0.1-0.1,0.3-0.1,0.6s0,0.5-0.1,0.7
			c-0.1-0.2-0.1-0.4-0.1-0.6c0-0.1,0-0.3,0-0.6c0,0.3,0,0.5-0.1,0.6c-0.1-0.1-0.1-0.3-0.1-0.4s0-0.2,0-0.3c-0.1,0.2-0.1,0.6-0.1,0.9
			c0,0.4,0,0.7,0,1c0-0.5,0-0.9,0.1-1.1c0.1,0.2,0.1,0.4,0.1,0.6c0,0.1,0,0.3,0,0.4c0-0.2,0-0.3,0.1-0.4c0.1,0.1,0.1,0.2,0.1,0.3
			c0,0.1,0,0.2,0,0.3c0.1-0.3,0.1-0.6,0.1-1C914.8,387.7,914.8,387.3,914.9,387z M915.3,387.1h-0.3l-0.1,1.9h0.2L915.3,387.1z
			 M915.9,387c-0.1,0.2-0.1,0.5-0.1,0.7c0,0.2,0,0.5-0.1,0.7c-0.1-0.2-0.1-0.5-0.1-0.7c0-0.2,0-0.5,0-0.7c0,0.3,0,0.7-0.1,1
			c0,0.4-0.1,0.7-0.1,0.9c0-0.1,0-0.3,0.1-0.4c0.1,0.1,0.1,0.2,0.1,0.4c0-0.2,0.1-0.6,0.1-1S915.8,387.2,915.9,387z M916.4,387.1
			h-0.3l-0.1,1.9h0.2L916.4,387.1z M916.9,387c-0.1,0.2-0.1,0.5-0.1,0.7c0,0.2,0,0.5-0.1,0.7c-0.1-0.2-0.1-0.5-0.1-0.7s0-0.4,0-0.7
			c0,0.3,0,0.6-0.1,1c0,0.4-0.1,0.7-0.1,0.9c0-0.1,0-0.3,0.1-0.4c0.1,0.1,0.1,0.2,0.1,0.4c0-0.2,0.1-0.6,0.1-1
			C916.8,387.6,916.8,387.2,916.9,387z M917.2,389h-0.3v-1.4h0.3V389z M917.4,392.2h-0.3v-1.1h0.3V392.2z M934.7,361.5h-5.3v4.2h5.3
			v1.4h-17.6v-1.4h0.9v-4.1c-0.1-0.1-0.2-0.1-0.4-0.1c-0.2,0-0.3,0-0.5,0v-10.8h17.6V361.5z M934.7,407h-17.6v-11.6h7.7
			c0.1,0.4,0.2,0.9,0.3,1.3c0.1,0.4,0.2,0.9,0.3,1.3h9.3v3.5h-9.1v0.8h9.1V407z M917.8,391.1l-0.4,3h-0.2l0.3-3H917.8z M918.1,391.1
			l-0.2,3h-0.2l0.1-3H918.1z M918.4,391c0,0.4,0,0.9-0.1,1.4c0,0.5-0.1,1-0.1,1.5c0-0.4,0-0.9,0-1.4S918.3,391.5,918.4,391z
			 M918.9,391.1l-0.4,3h-0.2l0.3-3H918.9z M919.2,391c-0.1,0.4-0.2,0.9-0.2,1.5c0,0.6-0.1,1.1-0.1,1.5c0-0.5,0-1.1,0.1-1.6
			C919.1,391.9,919.1,391.4,919.2,391z M919.7,391.1l-0.2,3h-0.2l0.1-3H919.7z M921.5,365.7v-4.1h-2.2v4.1H921.5z M920.1,391.1
			l-0.4,3h-0.2l0.3-3H920.1z M920.5,391.1l-0.4,3H920l0.3-3H920.5z M920.8,391.1l-0.2,3h-0.2l0.1-3H920.8z M923.8,365.7v-4.1h-1.4
			v4.1H923.8z"/>
		<path class="st7" d="M989.9,406.6h-2.3c-0.2,0-0.3,0-0.2,0c0.1,0,0.1-0.1,0-0.2c-0.2-0.1-0.5-0.2-0.8-0.3
			c-0.3-0.1-0.6-0.1-0.9-0.2c-0.3,0-0.7,0-1.2,0.1c-0.4,0.1-0.9,0.1-1.3,0.1c-0.2,0-0.5-0.1-0.8-0.2c-0.3-0.1-0.6-0.1-0.8-0.1h-18.1
			c0,0-0.2,0-0.3,0c-0.2,0-0.4,0.1-0.6,0.1c-0.2,0-0.4,0.1-0.6,0.3c-0.2,0.1-0.3,0.3-0.3,0.4h-19.5v-5c0.4,0,0.8,0,1.2,0
			c0.4,0,0.8,0,1.3-0.1c0.1-0.2,0.3-0.4,0.5-0.7c0.2-0.3,0.3-0.5,0.3-0.7v-9.1h5.5c0.2-0.2,0.3-0.3,0.3-0.4
			c-0.6-0.1-1.2-0.1-1.7-0.1s-1.2,0-1.7,0c0-0.1,0-0.2,0-0.3c0-0.1,0-0.2-0.1-0.3c-0.1,0.1-0.1,0.3-0.1,0.5h-2.1v-3.4
			c0.2,0.1,0.6,0.2,0.9,0.2c0.4,0,0.7,0,0.9-0.3c-0.2-0.2-0.6-0.3-0.9-0.3c-0.4,0-0.7,0.1-0.9,0.2v-7.6c0-0.1-0.1-0.4-0.3-0.8
			c-0.2-0.4-0.3-0.7-0.5-0.9c-0.4,0-0.9,0-1.3,0c0-0.1,0-0.2,0.1-0.2c0.1,0,0.1-0.1,0.1-0.2l0.1,0.1c0,0,0,0.1,0.1,0.2
			c0.1-0.1,0.1-0.2,0.1-0.4c0,0.1,0,0.3,0.1,0.4c0.1-0.1,0.1-0.2,0.1-0.4c0,0.1,0,0.3,0.1,0.4c0.1-0.1,0.1-0.3,0.1-0.5
			c0,0.1,0,0.2,0,0.3c0,0.1,0,0.2,0.1,0.3c0.2-0.2,0.2-0.4,0.1-0.6c-0.1-0.2-0.2-0.3-0.3-0.5c0,0-0.1,0.2-0.1,0.4
			c0-0.1,0-0.3-0.1-0.4c-0.1,0.1-0.1,0.2-0.1,0.3c0,0.1,0,0.2-0.1,0.3v-0.4c-0.1-0.1-0.2-0.1-0.4-0.1c-0.1,0-0.2,0-0.2-0.1
			c-0.1,0.1-0.1,0.3,0,0.4c0.1,0.1,0.1,0.2,0.1,0.4c0-0.1,0-0.3,0-0.4c-0.1-0.1-0.2-0.2-0.3-0.4c0,0,0,0.1-0.1,0.1l-0.1,0.1V376
			h-3.7l-2.2-6.9h3.2c0.1-0.1,0.1-0.3,0.1-0.7c0.1,0.1,0.2,0.2,0.3,0.3c0.1,0.1,0.2,0.3,0.4,0.4l0.9-0.1c-0.1,0-0.2-0.1-0.3-0.3
			c-0.1-0.1-0.2-0.3-0.3-0.4h0.5v-18h2.4c-0.1,0.4-0.1,0.8,0,1c0.2,0.2,0.4,0.4,0.7,0.5c0.3,0.1,0.6,0.1,1,0.1c0.4,0,0.6,0,0.8,0
			c0.1,0,0.4,0,0.9-0.1c0.4,0,0.7-0.1,0.9-0.1c0.2,0,0.3,0,0.3,0.1c0,0.1,0.1,0.1,0.3,0.1h12c0.6,0,1-0.1,1.2-0.4
			c0.2-0.2,0.2-0.7,0.1-1.4h26.1v12h-29.2v1.7h3.5c-0.1,0.5-0.2,0.9-0.2,1.4c0,0.5-0.1,0.9-0.2,1.3h-12.8c0,0.3,0,0.7,0.2,1.2
			c0.2,0.5,0.4,1,0.8,1.5c0.1-0.2,0.2-0.4,0.2-0.5c0-0.1,0-0.3-0.1-0.4c-0.1-0.1-0.1-0.3-0.2-0.4c0-0.1,0-0.3,0.1-0.4h11.6
			c0,0.1,0.1,0.3,0,0.5c0,0.2-0.1,0.6-0.2,1.1h9.1c0.1,0.3,0.3,0.7,0.4,1c0.1,0.3,0.3,0.7,0.5,1.1h12.7c0.1,0.2,0.2,0.5,0.2,0.8
			c0,0.3,0.1,0.5,0.1,0.6l-12.7,0.1c0.1,0.1,0.2,0.3,0.2,0.4c0,0.1,0.1,0.3,0.2,0.4l13.3-0.1c-0.1-0.4-0.3-0.7-0.4-1.1
			c-0.1-0.3-0.2-0.7-0.4-1.1h1.1v11.4H960c-0.1,0.1-0.1,0.3-0.1,0.4h-12.1c0,1,0,1.9,0.1,2.8c0.1,0.9,0.2,1.8,0.3,2.8l3.4,0.1
			c0-0.7,0-1.4,0.1-2.2c0-0.7,0-1.5-0.1-2.4h6.8v3.9h5c0.1,0.6,0.2,1.3,0.3,1.9c0.1,0.7,0.3,1.3,0.6,1.9c3.3,0,6.5,0.1,9.8,0.1
			c3.3,0,6.6,0,9.9,0h-1c-0.1,0.3-0.1,0.5-0.1,0.7s0,0.5-0.1,0.9c0.1,0,0.4,0,0.9,0c0.5,0,1.1,0,1.8,0s1.5,0,2.3,0
			c0.8,0,1.5,0,2.2,0v1.4c-0.7-0.1-1.5-0.1-2.4,0c0.2,0.4,0.6,0.5,1.1,0.4c0.5-0.1,0.9-0.1,1.3-0.1V406.6z M942.3,375.2v-1.5
			c0,0-0.1-0.2-0.3-0.4c-0.2-0.2-0.4-0.5-0.6-0.8c-0.2-0.3-0.4-0.6-0.6-0.9c-0.2-0.3-0.3-0.6-0.3-0.8c0-0.2,0-0.3,0-0.5
			c0-0.1,0-0.2,0-0.3h-2.4l1.6,5.1H942.3z M941.7,374.4h-1.2v-1.7c0.1,0.2,0.3,0.5,0.6,0.8C941.3,373.8,941.5,374.1,941.7,374.4z
			 M943.6,377.1h-0.2v-0.4h0.2V377.1z M944.2,377H944v-0.4h0.2V377z M947.7,388.3v-0.5h-0.2v0.5H947.7z M947.8,389.5v-0.6h-0.2v0.6
			H947.8z M948.1,392v-0.6h-0.2v0.6H948.1z M948.3,393v-0.5H948v0.5H948.3z M948.4,394.3v-0.6h-0.2v0.6H948.4z M962,395.5v-0.4
			h-13.6v0.4H962z M972.5,373.5c-0.1-0.1-0.1-0.3-0.1-0.4c0-0.1,0-0.3,0-0.4h-19.9l-0.9-2.6h-0.5c0.1,0.5,0.3,1.1,0.5,1.6
			c0.2,0.6,0.4,1.1,0.5,1.6c0.1,0.1,0.3,0.2,0.5,0.2c0.2,0,0.3,0.1,0.4,0.3c0.2,0.5,0.4,1,0.5,1.4h7.4c0.1-0.1,0.2-0.3,0.2-0.4
			c0-0.1,0.1-0.3,0.3-0.5h4.2c0-0.3,0.1-0.6,0.4-0.9H972.5z M952.6,386h-0.2l-0.1,2.8h0.2L952.6,386z M953,386h-0.2l-0.3,2.8h0.2
			L953,386z M953.2,386c0,0.3,0,0.7,0,1.1c0,0.5-0.1,1-0.2,1.8c0.1-0.4,0.2-0.9,0.2-1.4C953.2,386.9,953.2,386.4,953.2,386z
			 M953.7,386h-0.2l-0.1,2.8h0.2L953.7,386z M954.2,386h-0.2l-0.1,2.8h0.2L954.2,386z M954.6,386h-0.2l-0.1,2.8h0.2L954.6,386z
			 M955,386h-0.2l-0.3,2.8h0.2L955,386z M955.2,386.2c0,1-0.1,1.9-0.2,2.7c0.1-0.7,0.2-1.2,0.2-1.6
			C955.2,386.9,955.2,386.6,955.2,386.2z M955.7,386h-0.2l-0.1,2.8h0.2L955.7,386z M956.2,386H956l-0.1,2.8h0.2L956.2,386z
			 M956.6,386h-0.2l-0.1,2.8h0.2L956.6,386z M957,386h-0.2l-0.3,2.8h0.2L957,386z M957.3,386h-0.2l-0.1,2.8h0.2L957.3,386z
			 M957.8,386h-0.2l-0.1,2.8h0.2L957.8,386z M958.2,386H958l-0.1,2.7h0.2L958.2,386z M961.7,393.8c-0.1-0.6-0.1-0.9-0.1-1.1
			c0-0.2,0-0.4,0-0.5h-1.7v1.6H961.7z M961.7,374.7c-0.1,0-0.2,0.1-0.3,0.2c-0.1,0.1-0.1,0.3,0,0.4c0.1-0.1,0.2-0.2,0.3-0.4
			C961.8,374.8,961.8,374.7,961.7,374.7z M962.3,374.7c-0.1,0-0.2,0.1-0.2,0.2c0,0.1,0,0.2,0,0.3c0.1-0.1,0.2-0.2,0.3-0.3
			C962.4,374.8,962.4,374.7,962.3,374.7z M962.7,375.2c0.3-0.1,0.3-0.3,0-0.5V375.2z M971.7,371.2c0-0.2,0-0.4-0.1-0.6
			c0-0.1-0.1-0.3-0.1-0.4h-8.7v0.9H971.7z M982.6,406v-0.2h-0.4v0.2H982.6z M985.3,406v-0.2H985v0.2H985.3z M987.6,394.8v-0.5h-0.2
			v0.5H987.6z"/>
		<path class="st7" d="M1048.9,365.8c0,0.2,0,0.7-0.1,1.5c-0.1,0.8-0.2,1.5-0.3,2c-0.1,0.6-0.3,1.3-0.5,2.1
			c-0.3,0.8-0.6,1.5-0.9,2.2c-0.1,0.2-0.3,0.6-0.6,0.9c-0.2,0.4-0.5,0.7-0.7,1.1c-0.2,0.2-0.5,0.5-0.8,0.9c-0.3,0.4-0.7,0.7-1,1
			c-0.3,0.3-0.6,0.6-0.9,0.8c-0.3,0.2-0.4,0.3-0.5,0.3h-42.6c-0.1-0.3-0.2-0.7-0.2-1.1c0-0.5-0.1-0.9-0.3-1.2
			c-0.1-0.4-0.3-0.6-0.5-0.8c-0.2-0.2-0.6-0.2-1.2,0l-0.1-4.5c-0.1,0.1-0.3,0.2-0.4,0.2c-0.1,0-0.2,0.1-0.4,0.2v20.4
			c0.2,0.2,0.5,0.4,0.8,0.5v-7.5h17.6v21.8h-12.2c-0.1,0.2-0.1,0.5-0.1,0.8c0,0.3,0,0.5,0,0.8c-0.2-0.2-0.4-0.5-0.7-0.7
			c-0.3-0.2-0.6-0.5-0.8-0.8h-3.7v-7.3c-0.4-0.4-0.9-0.7-1.4-1c-0.5-0.3-1-0.7-1.5-1c0.1-0.1,0.3-0.3,0.6-0.6
			c0.3-0.2,0.5-0.4,0.7-0.4c0.1,0,0.4,0.1,0.7,0.4c0.3,0.2,0.6,0.4,0.8,0.5l0.1-0.1v-0.4c-0.4-0.4-0.9-0.7-1.3-1
			c-0.4-0.3-0.9-0.6-1.3-0.9c0.2-0.1,0.5-0.3,0.7-0.5c0.2-0.2,0.5-0.3,0.6-0.3c0.1,0,0.3,0.1,0.5,0.3c0.2,0.2,0.4,0.3,0.6,0.5
			l0.1-0.1v-0.4c-0.4-0.2-0.9-0.5-1.3-0.8c-0.4-0.3-0.9-0.6-1.3-0.9v-35.2c0.5-0.3,0.9-0.6,1.3-0.9c0.4-0.3,0.8-0.6,1.3-0.9v-5.5h31
			c0.1,0,0.6,0,1.3,0.1c0.7,0.1,1.4,0.1,2,0.2c2.8,0,5.3,0.5,7.4,1.3c2.1,0.8,3.8,1.9,5.2,3.3c1.4,1.4,2.4,3,3.1,4.9
			C1048.6,361.7,1048.9,363.7,1048.9,365.8z M1042.3,378.8c-1.2,0.8-2.3,1.4-3.4,1.8s-2.2,0.7-3.5,1.1c0.7,0.3,1.3,0.6,2,0.9
			c0.7,0.3,1.3,0.7,2,1h-41.5v-2.3l0.2,0.1h2.2c0.2-0.1,0.4-0.3,0.4-0.5c0-0.2,0-0.4-0.1-0.6c-0.1-0.2-0.2-0.5-0.3-0.7
			c-0.1-0.3-0.1-0.6-0.1-0.9H1042.3z M1031.3,367.1c0-1.1-0.3-2.2-1-3.2c-0.7-1.1-1.8-1.7-3.5-1.9c-0.2,0-0.5-0.1-0.6-0.2
			c-0.2-0.1-0.4-0.1-0.5-0.1h-10.2v3.9h-7.8c-0.1-0.4-0.3-0.8-0.4-1.2c-0.1-0.4-0.2-0.8-0.3-1.2h-4.4v2.4c0.4,0,0.9,0,1.3,0
			c0.4,0,0.8,0,1.2,0.1c0.2,0.2,0.4,0.6,0.5,1.1c0.1,0.5,0.1,0.9,0.1,1.2h9.6c0.2,0.2,0.3,0.5,0.3,0.8c0,0.3,0,0.6,0,0.8
			c0,0.2,0,0.5,0,0.8s-0.1,0.6-0.3,0.8h-9.2v0.8h9.5v1.1h8.4c0.1,0,0.4,0,0.8-0.1c0.4-0.1,0.7-0.2,0.9-0.2c1.9-0.2,3.3-0.8,4.2-1.8
			C1030.9,369.9,1031.3,368.6,1031.3,367.1z M1053.4,406.7h-19.6c-0.9-1.6-1.9-3.3-2.8-5.1c-1-1.8-2-3.6-2.9-5.4
			c-1-1.8-1.9-3.5-2.8-5c-0.9-1.6-1.7-3-2.3-4.2c-0.2-0.4-0.5-0.8-0.9-1.2c-0.4-0.4-0.7-0.7-1.1-1h19.7c0.1,0,0.4,0.2,0.8,0.6
			c0.4,0.4,0.7,0.7,0.9,1c0.4,0.5,0.8,1,1.2,1.5c0.4,0.6,0.8,1.1,1.2,1.7c1.5,2.8,3,5.6,4.4,8.5
			C1050.5,401,1051.9,403.8,1053.4,406.7z"/>
	</g>
</g>
<g id="Layer_3">
</g>
<g id="Layer_7">
	<polygon class="st8" points="510.7,271.2 501.6,248.3 480.9,261.3 498,242.4 481.1,229.9 501.5,237.3 511.8,218 508.6,239.8 
		529.3,245.9 508.1,246 	"/>
	<polygon class="st9" points="555.9,280.6 541.2,273.6 529.2,284.5 536.2,269.1 525.3,257.8 539.9,264.1 552,253.9 545,268.5 	"/>
	<path class="st9" d="M493.4,299.3c0,0,17.1-25.7,40.8-31.6l5.7,4.9C539.9,272.6,518.1,271.6,493.4,299.3z"/>
</g>
</svg>
